<mxfile host="app.diagrams.net" modified="2022-11-20T18:27:52.394Z" agent="5.0 (Windows NT 10.0; Win64; x64) AppleWebKit/537.36 (KHTML, like Gecko) Chrome/107.0.0.0 Safari/537.36" etag="L7bxhbj10-sbI4_01qek" version="17.4.4" type="github">
  <diagram id="mhLl-dPAW6MO-6dHlZJI" name="Page-1">
    <mxGraphModel dx="1022" dy="460" grid="1" gridSize="10" guides="1" tooltips="1" connect="1" arrows="1" fold="1" page="1" pageScale="1" pageWidth="1169" pageHeight="827" math="0" shadow="0">
      <root>
        <mxCell id="0" />
        <mxCell id="1" parent="0" />
        <mxCell id="U7dpvvyfIJU9yQjUAiOd-8" value="" style="shape=image;verticalLabelPosition=bottom;labelBackgroundColor=default;verticalAlign=top;aspect=fixed;imageAspect=0;image=data:image/png,iVBORw0KGgoAAAANSUhEUgAABhIAAAF1CAYAAAAN/XBCAAAAAXNSR0IArs4c6QAAAARnQU1BAACxjwv8YQUAAAAJcEhZcwAAFiUAABYlAUlSJPAAAOX7SURBVHhe7L3/a1zHvf/vf2J/NMZgirB/MMoPIYI2EcS6hsQVJEpEsVHBRQYXhQiLBFskKOIdhAgIy6RiTWIUWrHmIryUKEuIFUIkf0yEwFEWbGWhVkJSpbmmghj2tn5n39Tt6zOze3Z3Zs7MOTNnz9lvej7gQRtr9+w5c+bMmXm9zpk5QAAAAAAAAAAAAAAAAAAAAAaQSAAAAAAAAAAAAAAAAAAAgBEkEgAAAAAAAAAAAAAAAAAAYASJBAAAAAAAAAAAAAAAAAAAGEEiAQAAAAAAAAAAAAAAAAAARpBIAAAAAAAAAAAAAAAAAACAESQSAAAAAAAAAAAAAAAAAABgBIkEAAAAAAAAAAAAAAAAAAAYQSIBAAAAAAAAAAAAAAAAAABGkEgAAAAAAAAAAAAAAAAAAIARJBIAAACAAH7++Wf66aef6Mcff6TvvvuOvv32WwghhBBq5PdJfr/k901+/wQAAAAAAN0DEgkAAACAhn/84x/0t7/9TRsogRBCCGG4/D7K76cAAAAAAKDzQSIBAAAAEPj3v/9Nf//737UBEQghhBC6y++r/P4KAAAAAAA6FyQSAAAAAI9//etfeAsBQgghTEB+f+X3WQAAAAAA0JkgkQAAAAAw+JOSSCJACCGEycnvs3gzAQAAAACgM0EiAQAAAGBgOiMIIYQwefn9FgAAAAAAdB5IJAAAANj38IUgdcEOCCGEEMYvFmAGAAAAAOg8kEgAAACw78GURhBCCGHz5PddAAAAAADQWSCRAAAAYF/z888/a4McEEIIIUxOfv8FAAAAAACdAxIJAAAA9jU//fSTNsABIYQQwuTk918AAAAAANA5IJEAAABgX/Pjjz9qAxwQQgghTE5+/wUAAAAAAJ0DEgkAAAD2Nd999502wAEhhBDC5OT3XwAAAAAA0DkgkQAAAGBfowtuQAghhDB5AQAAAABA54BEAgAAgH2NLrABIYQQwuQFAAAAAACdAxIJAAAA9jW6wAaEEEIIkxcAAAAAAHQOSCQAAADY1+gCGxBCCCFMXgAAAAAA0DkgkQAAAGBfowtsQAghhDB5AQAAAABA54BEAgAAgH2NLrABIYQQwuQFAAAAAACdAxIJAAAA9jW6wAaEEEIIkxcAAAAAAHQOSCQAAADY1+gCGxBCCCFMXgAAAAAA0DkgkQAAAGBfowtsQAghhDB5AQAAAABA54BEAgAAgH2NLrABIYQQwuQFAAAAAACdAxIJAAAA9jW6wAaEEEIIkxcAAAAAAHQOSCQAAADY1+gCGxBCCCFMXgAAAAAA0DkgkQAAAGBfowtsQAghhDB5AQAAAABA54BEAgBg31EqFqlYLHn/BeoUaSszR3OXPW/uev/e3egCGxBCCCFM3ramuE0rl8fp9InjdPjw4bI9fafo2lfe3wEAwIHinaX6OOvyTerskdYu3awdyxwt3Sl6/74/6a5z2ynsz9hFO4BEAgBgH1GirdkBbzDYQ6cub7F/AXX2aPlsZaBcdnbL+/fuRhfY2C8W8nnK5wvavzXN+wW2D3kq3Nf8DXae+SzNXpqkSc/FzzWfgRBCz3Zlb22GTh0T+kSCM3e8DzXC4xIVv9+mjdsbde/s0N4j7+8AgK5j78ZZoS2Zoc4eaW3RjNAunr2x5/37/qS7zm2nsD9jF+2AQyIhpobizkz9RDNj6YgBAIAN3yzRKaH9OXz4LK3s7z6PAhIJ+8cCZS/00oEDB5gp6nstSwXt5xL21jwNpvg+MA8NU/qW5jOws/xink6W61XFiazmMxBC6NmOlL6aowGpvyjbyPh1784yzYw+ST2a7VY9/uI4Xbsd3kHdmtV/382ztPzA26BClO3v92AiAEEgkdC9IJHQCpBIaBVIJAAA9g8Plums0P4gkaCCRMK+8fNZ6hOCvQcODFJ6U/O5RC1Q5py4Dwco9VpO8znYUSKRACF0sP3YpaUXhb7QsbO0dFeYsqO0R8WIbw3IgaZwB16/SbuPvS9rQCIBgM4CiYTuBYmEVoBEQqtAIgEAsI8o0dblU95TYMfp9Hvb3T+10eMS7d5doaU3z1vM6YtEwr5RCfa2JpHwLWUvpIR9QCKhK0QiAULoYNvx9QI9Xe0HHe6h8Y/jm/dbDDT19A3R+NtzNJdZobUb12ju8hSdF9ZiqDrA+mKmvmosiYQTC7StTVbs0cqo5vMhIpEAgJm2DzY/3KGNG3M0Pn2TtQBhdGAiwWlc7AYSCa0AiYRWgUQCAGD/8ahI+2Kt5b0VOi/M7xve3iKRsH8sUPa1PkqVg70H6eRbuRZNbZSm4UNeEuGpUVrE1Eadb5KJhC9XKXNlkkZ+v0ibur9DCDvOdkMOBk3RWoz9Rb7t4yMLtPaNOTlR/GqBhqS1GQZo4Wvvjyq8P/vQ0R9u0tST1W330JTxAOU+4dRnmm3p3A/9awAi0s7B5q13hUTm2eXuSyQ4j4vdQCKhFSCR0CqQSAAAgG5FmcoJiQQ9usDGvvFenvIFzb83Vb7YcosXfIbxmVAiIXfpYG2bB56bRyIBwi6x3UgyGFQq2r3dUFqbktZQeDq97f2lcXb+OFQ/vsBg4Q4tDdb3AWN2ABqnrRMJ4htO3ZhIcB4Xu4FEQitAIqFVIJEAAADdChIJVugCGxDCiCaUSMheqG8TiQTYieY/zVLmeoYyuc3WvAHWprYbbREMeszG3eJbCaMrFkE9Cx7epPHadgPedCgjjv3N6ygAAOxBIqGFIJHQhSCR0CqQSAAAgG4FiQQrdIENCGFEkUiAccnfmMq72o5vNxVY/e2t119m6qlJyrX8bbD2sN1oj2CQ0h+zCuqFUaKt2adr2+x59SYFvh/xeAOJBABiBomEFoJEQheCREKr6LhEQunBDm3d3qANz+3vi1TSLhDlyOMSFcvb3qKdBxbbLBVp9259Pzbu7NDefp8Ukpfh99v1MrEtyxgoPdyl7drvtvn5UOrO9vch+8nKde+bLfnYHnl/awRlu1vf7IWeq5J0frdpN2oZ16636raYMZ6zUnGPdu5UjimWTer29+4uFaOch0eVfWt4OzbEnUjwXeMN1IEqzSwPA7rABoQwokgkwJiUzrm1E5TVbKul5ibpqGZfR97P6z+/z4wN1r+W+svMKP3AtkwkhAX9bZD6hEO09I337yakz8/QRhPGc1ZoznOkvmPCY5EyrRxrqSj7Etd40jcG5/v8MMYyTJK4xzW+7fFYiLy9qO1LM2IdsScS4qxzvrJlul73LU4klIryOWwkjlmNddTLo3lxNyu010IS+xeeSIiz3MskcWxJlpdv2/HcVzojkfC4SNsfzdDZvh7puzWPPUlnZ1doO6yHJf12/cmK4lfX6PQTwvaYxv16sEHXJobouPBZ0eMvjtO1283IxsrzVtp0MIsfjwv7Ok43w77w9QI9bfP5x3u08d44DSllWPOJIRp/b4P24m44wn6Xy3577rZmxyPdSGwznoZrpbhNy2/q607P8xdp+S/KBc3q/VZmnE5JC65V7aFTk8shdd6wv7zc3j1LT+q2+8RpWtjw19/dz2Z810hVvmjchuVTSsW7KzQXcP1wj784Rctfh1VOUxlv0bURYaEornSebM+hBztnK7OGsvLs6WNtyffe5wMofr1CM6NPSnPe1u2hJ0dnaCX0uMOROoEWynXfVD4l2rkxZbzW+DlbsSgDkWaVhw26wEZzLFB+c5WyfKqLqtlV2ozzidp7eVrP8ak01il/T/P3qN7bpNWssN9s+4X7ms81yUJ+nXJCOeZu5SNOHaI5J3GXnWIhr5Tl9Sytbkbdf1V2PLdywrZztN5g/VLLOvvppnzu92sioeBda9Wy4fWm0SfONddZ5LrI9m+zOrWOZ/k6aeF1G2bnJBIq19nql7q/MT+c8Ba2lz15ZVP/eVFeBz7p7qmQGmXvznJAf4Jb6VMs3zGNz+Q+ZahhfcdY2KaFX9V/89Qfd7x/j0qJNqbr4+ieN9fYv4SgJBKacdRB8DFE8HmujMND+6MPtmjZom8/c2PLYuzaRmMtQ5yDHu2wscxpc+xihPW31TFoGMUdWrMYg4+/t0Y7oV15x7GZh11A3nR+irQdNK5xGNuWCYlJ9Dw/TktfVQrCKZHQSKzDBiUeEqovuWAYjwfV/3J7fI22bHb5cYl2by/RVGj7bj5fjY2L3TCd29JflmnqRSU+UZWdv6mPdr1PhvBwm1Yuh9eHqRvbVNS0XTt/PCV89mlauOv9wYLtd+tvsx0+NkUbpiYjrM6W24U444Lm9mNv4xqNP2+IHweUk5Ekji2WbTapnVNo/0TCI9aRetlQAVSfOE8rP3jf06G5wZbYvw2I2/DU7dfuxxe1n/XbQ6cub4V30BpkOy1c0IenaC3wB0u09qa4j4dpKvgLcmNjykr/cJMunpC3a7Ln+TnaiutJY4ff1dbVZicSrPZ3gO2Hd05Yp29p1KLen2A3KWOZavbX6nrqYfvs3dBY47Y2PaD5jOIxdj0FXXtUpLVJww1U63E6/+egm6qmjB+xf9OVsXSebM8hu2LuLtBQwCBDNLj+lNi1OhQ48KkbdtzhxJ5IeLxLN1+3qQNDdO1rm1avueVhgy6wkaibWZq/MEhHUv7AUtXULwZp4kqWNkODfJs0/5zw3QvZyr/fX6f07/rk4JUUfDV8L8T8J/M0+oyw6K3kQTp5KePtc5YmhL8ZA2bZCeH7J2n+C81nmJtXTgqfqwcKA/fn0EmavG4RqOPmVyltcU7mP9d8N4pf5ih9aYT6D+l/q+yhfhq9skp53fdrms5jnlavjBq3f/C5ScpsqtsKdvP6NI2YyjrVR8Pv5Cr7GlciQdlOqOX6XaDMOfHfzXVK5/o7/fXvpsYoIyQCTHXw2y+zNP0b5VqrmaK+30xT1hRgNpj/JE0Tvz5i3OaRX09Q+hO7p9mDt8Xl25undc13W21bJxIK7Bq7Pk+TZ/pr7Ya5rudoslfZz9QgpQ11s3CLtQ/vjNJwr3e9dfkbOJHhfeUxl74lfwjnJu36BuRynzLUgL5jXPDxaf1hriFacnxYw8f3SzQkbi/sbQTOV3P1vtrgEjWayogMO8/LNv1QT3OfvEQ7mfOBDzOp8ge9bgaOb9porKVLJPywQueDgo41B+jix3b97b21GcNDbgafOE3X7gaND+zHZiKREwnW45qwsa2HdUyiMqbZtU0kNBrrsCGJRIJt7O4Eu7YCg5g7dM0UBNZ57BTNVeMoAq1OJNjFD3to6L3twNhh8bOLTm3X8bEV/71Oug8cpqfftVzEX1mzp2d6Q7+vLYkL6tqPEm1dPmUVa+h5eYG2bfYjiWOLbZtNaOc0tHciQRMY5E8azN1Yq7yW8ZEmQ3lsnG4+9L6vot5gv2HbF572OPzEAA14N1t1v3ijL//Ok3T2zSVaKb8eskbLmuzgQNry4ozKXfGNgR6a+8r7dx2lNZoS9o3bE3ijlivkUEbTufiB3XykjgTPCE/R0keV12bWbszRuJp9PcEuVpcsnQ5fvZB/d+OzZbp2eYrOn6j8trauNjOR8N83acHbX15/ZzIrlX18W5N9LGd4i3Tz1eqNkw16Xp0pH9vajWs0o3ma3/xUkbq/K7Xt8idtpt5bprXbK7TEysr/tk9l0LKdrjdAx0em6Bq/9th1N/em5imDF9kgw3hu5X3p6Rui8bfn6udMdy0HDnTU9miHdRTExNpxGvDOv3yeLM+hr24fp6GJOVr+rL6/c/z8eeUWNGjZmlUacZ5ZvszLnm+Llb+vLHto/OPoT+LHm0hYE/afl8FMcB0Ivb6bXx426AIbyVig1XeG6aAYTAox9dQoLd7SbauqLpC8TvMvpKTtlG0okZCn7GumYKls6qkJyt5LPpGw/v4I9db+zWSKBq+sa7dZtZCbpP6ABIJoHE/X5z8YdaoDB19KBwR59ed/8bfyfOxaU4M0H1i3qlpuj1ne11utTCSw83l9TKqnVk99l12n2V/Wv5dSrgldHSyw+ttnU3dS/TSZs3kTpEC5N/qtrjOeuBv+Q1DddtlWk4LvjrZzIkG3b4F1nScrL43QyV/20ckz0+ZEnq7eI5HgR/fwCBub8X7KHO9n87HZe3PaJ1l7RpeVAIvcpww1cPwUA9+vSMGFgYYfTovwNgJHHDdbTXOSAOw8z/mCiZVx31x5HLNBK5m58vio2nfU98k1/U++nZfZuOxyZTzPx1navm1goKWNxlpqnOMvwjXiXRvlbZvGoOIDbQZ88RDm8RPnaerytcoYqTo+ctq25dhMIVoiwXFcEzi2ZfjGi8wnBuj8m94Y17fdARp/9bTwecN+xxHrsCHuRMJ/b9By9UHIcqysUg7GGEbgjBrytqV6Vr5eNXGmY1O0pgRbW5lIWGPXZDWJUI4BBbYHwYvfS9uW7nW8PHTj58M05HuTrUgrY8JnfmUXlyvdnhKue8ObDK2KC/qu8Q2pnarUm0obz+8Vdn0ChSSOLdZtJtzOGWjjRIIYTOUO0EXDaz/Fr+Qnh40dJOUGOzNbuSAHXl+mbTH5UNqlPfG/v16QMok8c6V9HevxLq1ImR/LJz6iomQHA197ZceuXjTlxsP7s4/iTRqvffaU/zgeb9eC42WPDdGC98qeyu5HcibW36i5Ib+JwTomG+ZbUOkH1mjopppqYiKh5xivxz3s5qqpv6zO1G64nmdHvcbPVKbfqw0P6yxqM/rK/rL94NsdYA2s7zWux0XaUDrYT7P9qGStDddeccPXyTGXY2VfylM43TWfr721KflaM2W81fZodqZyPk8o2+evRD4Qf8/mHPK2R/gMH0AEPAlWvLtMN//i/YcCn05MvO4GXtc8HcApbslPb2g6QpFwrudK+fzq6XKy0tjmaerA1G3zIKTl5WFAF9iIX/9im+UngZ8dobFLs5S+nqHFK9M0eU7zVHxgwNcfSJYDnuw3er2nkSMnEgL2/a15Wry+SPNvjUlPq6fOjdKI8Pm4EwmL7HvVJMLBZ6r7kabZS6M0+As1idJPs6Y3CW7N06BU3gep/8wkzX/gTf9ydZYmXxmhfm+bcSQSpGNJHWG/N0aT76S96WbYMWjqQP+MKWCsnsdF4VzxYxmj6SuLlePQ1a1nZkOeRNclpQ5S70uj3j77y7z3zEhLEwnlp7+PCv8eeoye0jz2R2kyJ//dl0gQ686hXho+N0mzV70643wdczXX2aF+GrnE67apbqSM8+yvXxmUkwjStjKUfmeSxmpP03dOIsE+MZSszokEW5FIsGCPVpS+M+9P7Ji6Hw82aE55QjZoLGIXoIwZbw7jFWU6kIHXbwYHOGyQnkK1n85CnhJX4xMDdOr8FC19tuM2PYQ1/vMcOBVDeRqHi3RN82Dd3p+VADgbL6x8Y6gwj/do47Ly5qwx0NJGYy0pzvE0DZyolF05zqHrw7P92VLfEP4Vq++GYil9NSc/Wc3HqXcMYzrvXMifN/XlbcZmfiIlEk4MlPfJOK7ZW6Mp23ENH8OL22afHbpsmILEFyOqqt/vWGIdEZCC7lbJQ3k8/jQbN/L/NY7vfDGMSjJNT2Xb5Wv+B1PjXqKdP8rXtvbh1yqR4j/2yHWSjaH5A8umeI6mPTDHPbxtHztFF4Om41Hrb/kBVe9vHsWPzgu/aXM/kBPRvC30lXAL44Kma5zvw5zpulCS9VxjbDuJY4t9mwm2cwFETiT09J2iU4MRrD4l7Gm6gEtrYuZLeP3PgBygMjRKShKDG5qBerxDSy8K3wmcSoahVIygBqFxlAs7oMGv35DO0tlaRdMkCKqIiQdNwmHnj0PeNrjhTzCIT1voGjV7lAvF9qkalSYmErgD7LPG/Xy4QueVz5cv6ICpp+SbwGHDE9vK/jID6zuvu+IbOp6BDbz0VgzrQBjfwtmjrTWbeehKtPa68PvH5rQdLF0Z272aZXMO5W1Hnpf2EWukxQRnWFvz8CaNC58P7AjZ0mgigRvW5imJ1sNvb3h/UGiH8jCgC2zE7eYflKBe7wilPzc8oXx/kzKvKU8SG4OhSiD5lQma4IHBVD9NXJfn1c5/Ic67b59IKPxp1Lfv84ZpVfIf6p/ujzeR0Eu9fJoQ/pT3h7r9yFPm93JANvX7jGaO8Twtnql/JizQm8/N0+In+r+5WD6WVB+NXslR3jR11ZcZGhOnQlGm2amrnMdeVjbsf1PPTlIur/m8ut0DKRq7bn5Sfn1OLHe+3Qnjk9TrV/VviMQSXGVKgduQwKo0RVFQIkkwd+lo/Tua601bB1n59b9Wnc5LkU8vpr7JEbDf+fdHpOus97dpWtdtN5+jyWeF5E5qlDLqugn5RSmRl3phXr8t7v085a4s0qruby0WiQRPJBIk5DFiSB+7iu8J3/O0YniDPflEgqavpcifZl+IKTgozW09thLwBLCMXA4hlgNcO9HGZAb8D59ETKoo/c/Qfm0Z/xsM5z9q87GWJs6hTWhIWB6nGg+xnA5DfYNBP5WKzdjMT6REAjfs/CvlbZrBwVc/Q9uhEm28LSYIuLr9VvY5aqwjAo0mErhh4zu13E7rHrQss0Mbn1m0gaxuXhPXDR1dMe93UxMJ3JAYmRpQZvXBtKj93ldr4evBMkqfXRS2p5mxpLQhj8fDrjdlVhNd+9C6uCBHdz89Gz4doPpGgOHtjCSOLf5tJtfOBRE5kRCX+gt4V75Z2XR6lKfztVkl3w3W3ImsYvUqj4LUiBxjJzHwBt4YvDNdPx7TgsjCwszsIrn55/r+mbJvYibc12FRGiCr+dWkhjvoyfUwlHpoClqG0dREQlg9869fEVrnpTdG2MV/WbcvaqMSXn/lRXiYoa+8KR3ioJu3JfITUKa3Lfztkb6Dr2JxDpW6Ye7gBLObEW8S4W0NZ2vWLjFoTcOJhOCEVgWhfeGeZh1I7y8ibVEeBnSBjVi9l6FRMbjeO0HZ0AVT/U8nD1/VBc2VQHLZXprIhk2jYptIUOb2tpgOh0/3ogaU400kcMOOUXkqPaV74lqefqnP+NR/vG5+mKFVXZBfsfDBSH3/D6Ro4kPd5zTnP6x+SU/eH/BN4VPzy0Uacay3heUxadvcViQS1GBs/zth55bVBeFYddeavw6maHAubLvqGx3+Nx3KKm1EOfCvfkZUOTe+45Ouqz6rREo7Gk8ioUD5fF5RaDvu52n1g1mavDTpOU3z11f1Sb5CfRuLv/fv29gH4m/IC1kXhH+v/V3Ydu3vn8z6Ewn/NcvaDPG7bP/vif8t/LuwTZ/3NWURdfHuGHVDGSMGPEGtIq87YH5AodWJhIGxa3Tzzg7tWR5XINLDSm5PHe7+tzgFi53hgWtbduiaGGA7MWd9nlXk/ufToUGbGiU21hDHOLoncX3nsoVjLTXOcczybV410aLpb8vxkICnd30o5WMTBLMMaEVLJNhcAzbjGrUdCjuHHspDUvr9jinWEYHGEwkWs3Go023HcHzyGxwBbXaTEwk208jJ7cHpyPPV11BiRP5rVXkQOSRWKcdlNOP3lsYFOf77aWBiVkAO6Gv2I4ljS6S8kmrngmnPRIL0CqZtp0cJxuouXOUGG/62gMWrPDq+WaJTtd8JeOo/DpTGQhv0E8qznG0S9087N51YsfyVVe5MBL2SJiJX1shPeasXim0nSSXSjcS2o6NcK4Hz/1VQbzzhc8IrF7/2JqzsL+/keH8xolwj5jcMqijXXYRGyIe0D5aJBEPG14/NOVS2HWneOLmDaftmkpwYZHXb6pgCcK7n6vUV3LmosnVZaCe1Hbg2KQ8DusBGnMpPRx+1CPJ7FrI0ETpFiz+QfPRSTvmMTrtEgjrfvD6Z4Vd6upsZdyJB/4aB7PpMn/Adtm01AaIEm0+GBoWbrPJUub4M1fMf/IZBRXktgAP/pQ9aq/VWGwD3yd/ykKdCakkige1H+iXh878Mnt5IrufDlNYsjuxLJNhOmfT5LPUL39MlbuSy1v++avaCUM5Kecj7qqn7HWIsiYSAJ/zzfxozr3FxaJhmP5WvJX8yKdh63ZeTlhXF9k739wDZ/v9/SttcMbju5K8OK5+3b9OT1AlpjOX6tqLSdzYEZFudSKh7nE6/a5gqxRIpiG4b7KzyqEhFwxir9HCXtj+6RuOaxVC1U7m68rX8tKTdw0I6lHNuO5b3kIN8Z2nFV2HaaKzlvN060oM7vv628vvWY64Kcl9et6ajzdjMT6REQlzjGmV8Zd8OqQ8P6vZb3eeIsY4INJxIsPoOn7LM9TvBWLfZkeI/9sj7YRkgFxe1j2Wf5HOiTfop66yaf1NeU0E3fm9tXJCj3k9ND1ZrUPoT6n4kcWzJlFdC7VwIkRMJp96uLu7h6KI8JYuu4sqZL/vgUWjjp9xgw4O18hMA1pU84UZKRrnANTffeqNWbSjE49KU795Kff81nQUp6zu4xKq2DdE6CTrkJ0uYT5x2f/23iYkEm46c3MmyST4p+6K9CSufsUhoqA1q+NPoynUXoRGiEhuoPNihLdY+8EVw5ibE82uZSLA5tjI251BJIDLLazt87TCIsUnw6bBKojjQaCLB8g2T0A5cu5SHAV1gIz6VoK1t8NFTDoYPUto3rYwaSLabxsU2kSAFK43T62j8fJb6qt9jxptISNkFpz+ckAJt/u8owTvHc5O88v5ZJRK0b174zb0mBvt131G261A2fCqs+rZblUhQkwNBT+UXKPP7enmYklRqENm0NoFfpSx9SQ3WRjxT/7tNkowrl/OofG1K11XQGhvtbZKJhFVWRqGLtSvTRrVTImFTfevK01wvlancytolrZLWBXmM6P6wls3A2TooFSdeX3iDL7CoBOd7np+zmIpHgzKNTiJTRPK58JU5yg8fG6ebFm+dBiEH8B0CQypK/9M5YBUa5GujsZYS55hxeNCbryFR/676VLTyRoTrVDtiXIHpD2zajM382F2nEc4PI2zb7uP2OvKbPvr9jiXWEYFGEwn6GRL8uP+OAk9yfr9N9UX12/GNBF3iUUOj+8TX13m4Rzt3NiqL6V4eFx7INiQSlHuDcVob6Y02/dtWrY4L+rblVJ+2aE58Q0h5MDeJY0umvJJp58Joy8WW5deTIqqbW136bV1GXEHpfET17J8jlpUlUiXwPQlRFBaOrScN6k8eaN44EG+Ovs6CuL0GbGQKHN88pxX5fKIzN7Zo16Z308REgtW14hwwtWk0bfdXIEK5OCUS+OLHd1do6e1xOj04QMeF39Jrl0iw7bhYl4lvJf2Kx18cp2s2i8opT1JF06KNCqPRRIJNnWGE3ojapTwM6AIbsak8Ve48fU5oMFwJUh6dpJz0d5M2iQQlCXLOLsBZMUtj1e8x400kjNCixdRAagDRX3ZyAJmbemrUuP5D8vJpRzZpNest2HtpRHqS3SqRcGaR8r7P+JXLU5NIKGRotPZ3x3p7K6zco+maSFCntzr6huFNHekaNb95IZeZ21P+cuJmTC5vpY0Y/ZPlG0tB1w47f2PSk/Yp6vvdvNWUWu2kNpEws+qfnkdUTXbqEglHe6nX9CaCojhtVHslEtQ3WTxNbYBSz7i2SaukdUEeI5rnkzahBnp0fcxGB9eNU6KdzHmpj9xj/cBMHfnJx+QexuD7q86zHzlO4LHxdn1b9sEWDUr/0yW4XkbpR8cSBE9qrNXIwzdB8RklHuI+5as8ZvOXUUJjjzLJbFtOdLm1Q1b7HUesIwKNJhJsr3un33lcpJ3by3TtzfN06vkn5aSl1oA2O1L8x55I9w7HfSr9sE0rmRkaHzlFA0/Uv2fSdE6kZJXhLSPpeLRvc7VBXDDiNV5B+a5UF5M4tqTKK8k21ExbJhLkm2VUNYXheoNVLuyoNtqZCkWaCkp5ikCch05ICojJAjULKb7e6H9rQ6moUXXKFmoobtG1EXnh7rrH6fTsSvCCNJFuJLYXaYRrZR8kEopfXaOzffJTVuGayiJqe+RQJnxFf80r22WPnaLx9wJeN1fauag23MFxPp8R6gwj9EbULuVhQBfYiE1lPvqxZc1nglSn3/EFk5VA8gtpiwAr1yaRICcD3JIgNk/TMyMlEuyeug9PJDBvzdOgJqB48JkRmv7AME96TBa+yFH6nTEaea6Peg/590HVKpFgeLNENbQ8lTdKnOqtTblH0D2RoEyxZUiySdO9BEyBFKkOevqSEGI9V9qIaPrX0Fi/oizwXvYg9Z+ZpsVPWz+djY26REKYvutEl0goy5Mrs5S9xRMQm7T6wYR2oXixTvBrNnM9U3b6N/7PDv+fyt+qrtae9g9LJORptfq9P4xJ117ZX45RWthu5kNvIX3tsSlvp3iqbwrZTYPWHF2w7XOakPsr+j5mo4PruJDnb7Zbp6+OErBwWGQ5EtKTq0zXp9YlbMY4lljEHQJR+tH+8UYbjbWcx5ICQeUUWgZhyGM2fxklNPYok8y2G2mHrNuXRmMdEZCOy+q6SzaRsPvRFA1ZBMtlA8o0wrXnQqR7h+0+8fowapNIkTWek9Cp5OVpifVvtCnXV1QbigtGu8YrKN+V9iOJY0uqvKKVQaN9HSQSglAu7KhGLitr5HmzxOC/+DSKlBQQEwzSWwziq066BVGTugCisXdniaZeNNxkj52iizd29B3ZSDcS24sUiQSVvZsXaUDYLren7xSdnpihufeWae32Bm1/X6RikZ0tq7JoQiKBw5+C+GzBnADhr5puaH5baeei2nAHx/l8RqgzjNAbUbuUhwFdYCM2lSlGnIOqSqAoNJFgGUi2+l7obwfZIYkE7q00jT4lv5lQM9VHw29laDPOhEI+R9O/PqIJ8gbb1ERCI/XWttwdjZJIkNcn0L1tIK+lELQoc2KJBKWso6or5/Wro8Y1AFJPDdP0dZdruvkmmUjoZdeK+jQ+D7b7r0v9G1C6fTPX9bBEgqBuf431XVkLxNP/VkuBMueUz1m/vZa8LjQSwOPI/ZX2TiSoT4K7zHmvBvbDp/NtFJtxiS0xbkvpfzr3I5V+tH+80T5jLfexpEBQOYWWQRhIJIi4ti+RYx0RkI7L6rpLKpFQou33hnxB8+MnTtH5N+doLsOnWN+inQeVdVysyzTCtedCpHuHzT49uEkX1TdUjj1Jp0bGaebyNVr+bIM27u5S8WGRSo9tz0nI+gdSokEXE+Qo11dU47xfWF7jFZTvSvuRxLElVV7RyiBSfRVoz0RCgws/GHG9wYbO6dc+SK/6Ck+B1N8uUBsA8UkVYW6/H5bpdHU72os6/gVy4qD0wxYtz57WTJXTw86bJoMa6UZie5FGuFacO39BDV+VCI1KEp3bh2wgJE4TdOIiLd8NGNBYlUXU9ihaQ8spfrNG1149pXkSYICVk9KFi33hpIg4n8+EbkTtUh4GdIGN2EQiIfi77ZBIKJun9Q8mafAXhoTCoZM0uRzDU9xfLNJIr7Lt1BHqe26Exi5N0/wHGcrk1stTtBSsyhCJhGDlQKtvIXIp0RA8X3wnJhLK5tdp8dIgHTEkFA4+N0nZNpgnX2dyiQTTuWbXnK+c9O1SeyQSvvUtiM/1TVmkTFXGtVuUvzm60OgYUe6v6OewbnRwHR+7tHy6uh9Mh+mNih+JaxI2sMaAA+5BSBM2YxxLGu1/Kv1o/3TFbTLW4jiPJesErpHQcDxEHrP5p6NNaOxRJpltW50PA1HbF+dYRwTcr+Fo4/HQ3/l6QXoAseflOdr4wZwusS7TSPEfeyKd29B94jE78b43QBdvbAdMs2x/TqQ1h5TpjcTpu3SLLFdoh7hgtGu8QtAaCUkcW1LllWQbaqYtEwnyQcXY+XG+wcrH7PQkSLMRV1+vrdQtvF2gqahiOVfPp9igmBakkhp/35oMLaa4Q2uX1Qy2Josa6UYi1wfzRRrhWuniRIJ8PbNjkxbw0tCmiYQaD7Zo6XV5LtjydSDe0JVyTP5JMAPO5zOhG1G7lIcBXWAjNkPXOAhRCSoN/gGJhGQSCXXzny7S9G/6NE8m97JtNDIVCF/sVExU9NLIlVzA9ElIJIhGSySw8/n+SP17ylPY4hzzYfPFN5JICFwjodE2wtb7eVr9YJqGdW/f9LLjERYVbhcTSyT817xhCivleirb3okEdS2Qssqi6/5kg+2i/M3RBbm/oS4KG46UiNCtp8cI7dM0DZu+vg7lexHWV3BHfECN2WCARB1buK6FUUPpfzrP7y8lInRrdbXHWKuMNH5yuzbkBF19TcUKyvhXWZA0FDUREUcyhmFVJhG3HdYGyAsmWy6q62G33wHYxjoiIO2b1TUcbTwe9jviNNuHf8Wu/5DF5q3b7AjXnguR7h1h+6T8/WxoG+ZwTkobNCUE0usLv4uznQRPqyedy5bEBZVr3KV9UtomNfaZxLElU17JtHNhtGUiQb1p++fsikiEYK2UNdIuMtIm8NeYag0Bu+C/Zv/2zRKd8vZde76Ev1c6mSVae7O6DeEtBQX5qYUhWvre+0Mbsfvf4j5qApdKo2wV2FS+Y75II1wrXZtIEOsU06JTImXH2zGRUKZEG2+LC/5511wNOcNtzuQnjPP5TOpG1CblYUAX2IhNNRg/18hiy/550BNNJChPsaZec3iCVT3uDkok1NzM0uxve4XfZTYyHYhzXWhhIkFZMNmfwAqwkSREgFETCfLCw+waqu2PuJi4+O965TJTkgGBblL6her3mOo6DEq9GHk/+fULNrOzvjdj2ukJ9aq6YL2xLTGplG9ZY/3pxESCbtFlsT77F5U/8Ix5LZBW6ISyeO75j1xC5PJUsKZ5/BsdXMeHON0s07bP2vRpjRiPlX11DTYryOfAdX0IEWW/HNeKkBfVVQPsnHYYa3koMZZ6UDAMpYx8YzUlSaQ+PBWCuC6jPr6glKFV4kv5jvE6TWZcIx9TA2XdQPsSGuuIgFTPWpZIUNppi3OmLsJv/EaEa8+FSPeOkH2S65pFjEiZEi/4nJRoY1pI2lTvieJ9NiTY3fq4oHKNOyzOL8ecenxln8SxJVNeybRzYbRnIkHJjvXE9SSFc7CWNdLiiuaHB5RgYTshNwQ8o1bfd1NSQLyZsc7RIyEZEdRoSHOmHaaBdnxTI6wRFdeIYKoLTuuQLzam8TtIJNRR9iF0YCHP19e+iQSGMpiVy0q5MR8bp5sxPCniTNskEtqkPAzoAhvxqTwt+lKa8trP6V2f6RMCQLpFNBNMJEiBVmbAQrSq0lPgzI5MJJQtUPYVYcFe7Tz7dsqLnZqPtWZ+kUZqn29yIkGdCuVc8NP6ork3xPJqg0QCU1x0OVUtI3GRY4sEkVxmffZPdCvnsfb7NXPSdDphb0bE5r0sjYltUxvNmV8ViQTPsPr+ZZqGle/UE0Pst5Xpmoavttdi206oAesTDkFN8e3tgAfVGh1cx4a0v/aBQrsHcuKFB7vEJ6TtA6sGlLFmI7GA7XfFIKPDWF6pa/qHYNphrOWhxFhskybqudMtqipPldXjELRWxnXahzKVh85qMysEoJSh+TpNaFyjxBmilnVD7YtTwNiO9kgkyNsMfYtIvScElWmEa8+FSPeOkH1Stxn2dpZ8rVqcE+k+U0mWim2mfpFlgZbHBZVr3Dbx/HhHWkxandqpTBLHlkh5JRW/CaY9EwkM+abPOnufWd6wHhdpb8/QeYmQSFCf6jj84jXase2wPtjT31QebtHS5TmaK7tEW7b34hD4zam2n68u0VL16YGAzFz91bEemsvU31B4+t2gSq0Ge4fo2l+8P4XxeI/2Gg0g2pR/6GuUyryjYYHNR2tScqus8SJFIqGO21MspY0ZadDUkkQC3z+bOhb2urMyAOx5cy1gPkOZIms7GhyCVVDOZ3jHP8EbUTuUhwFdYCNOxSAmn87GPhAtJyH0AcYkEwk8WCY+yWobRF+n2WeEbTM7N5HAFAPODWzH9Yn2/NVh4fNNTiSUp2ESthuyfkDNexkaVYKW7ZBIkNZCSI2VE3LidRm0yHJVuczsn+BfnxGfFk/R2HXNQrjiE+OpEVps0poFctLH8rpqokgkeIbWd81bB9XEEGtj5WmN9ItHt1JX5Ie82ECc9VVC+wj8YSlxscqABESjg2sTu3c2aM+y30OPd2lJ7I9ZP4ChBGUdns70Ybuve2yMJAbyfsXKrOFOGz8O4QEU1s+2ngde3W8lcHP4BNu/kKlS+O9vzYrTmJoSEO0w1vJQEwk2ZaZeF6Z6pjzkefgYG59ZTJ20y64lcaxkGofIUwWFJSrUusE1XadJjWvUWAjb549CxqJqWRu3zbC59kJjHe5I9cxq2pVo4/HgRIKSGAhJ0qhvZgS22c7jYjci3TtC2gM5MRwSJH+0QTNSUsXmnMjlPbW2LbwRYjNlVovjguo1zrVo4+W2yRTQT+LYkthmgvGbANo2kUAPWOMoBW7DFhZhp+XuCs2MHDfvW5REAu9IXJbnQy8v+BL03dIubbw3Tqd4Rt37JxEp4G/VSFsiZqYHh2jIK7+gtR3EfTl7tlqZ/K/2qJS+mpMWwTl8bIjmbgfUiccl2r19jcafD992MKwePnGaFm7vUslYF9TOn/61IXUg0jPKOtu6Rqe4QXNsv3m59Ih10niRRrhWujaRoL4WzDq1f9xhZ8jP3toMu2bEbXFbkEjgZfB8yILQbIC3PCo+Ya/JYrPfWhE/wxx4fZm2g/osD7dphS+kZfUUiAXKmze8nuyq143030neiNqgPAzoAhuxKi3oyrSaj7xA2QvitDqmBESyiQQ1iG6z7+tXBn3rC3R0IiF0eik75bc0QpIy6tPizOYmEvyJjNSZdGgwU66zFRNJJDg/PS8mt/i0L2KSzi5JoiYSrNbMuDVPg2Jipdew38p1ljq3aP3mUn6TL8yt/Ltx3Q1Zae2G1ATeSOjYRALTlzCotDFyIruJb7w46Ax/AlUKyPXQqbfXzEH6B6wf/7LY/xhg/VtzpDupRALvL/c8P07XAscwDN/+HqYhw7p1fpQgXOQphrzx1mc7gWPvvdsLdPoJ4fd4QDWu4NwPrD8ujQt6aOhyQDKGj7/fZfusGbtsp5Wx/PMztGYaaz3eow1lDnpzsqo9xlplfIkE7gBd/MiQTHCsZzygKT1N/8R5WvracK4fF2n7xkV5wdxRzRikiprsOXaWlv6iKXG23Y3Lp8r70XNM3Hfz2COxcY2yIDAv66nPDKOVB2s0U44lHKanfxU2DU98sQ5X5DH70zSjDm59+xNtPB6cSFCSobxc13TbLdFO5rxm8emANtt5XOxGEokEaSpypjFetVevY6I250SMiT395lQtnmg7FXHr4oIc5Rr37Hl5Qf+wtqZt4nGcNUPiIYlji3+bScZvzLRvIoGx95G/cejpG6Lxt5do5fYGbXA/W6Zrb4/TUF/9wjHuW6REAqO0RQu+C/M4DZyfoms31ir7wVzJzNHU+QFhn/UnRFzQKN4FnNUMFzckc6m+mldWNwekCruBvVu5kYvfPX7iPE29t0xr1fPz0RLNvXmeBoROZmMNhlAPnxig82/O0dJH3m+Vz8EMjb94vPZbXGPnT/eWwRO8fl2j5c8q+z4zMVQ7nwOXV+Sng4wXaYRrpYsTCeo2ucdH6tfO2o054ZwN0ELapiyitkcWZSLsb6W98epDuY6t0fJ7U3RWaG/KyRHTEz8PVui8NMBiHnuShiZmhHrLt8nq7ctP1q+n2ALnyhshzOMvjtNMZqVSv189RXPSOU74RtTy8tCjC2zEbe4NOcCaemqMFjf1n/32/iZlXuuXgkK9F7KG4E/CiQTfAsFs31+YpVXtE615Wp3xkghHj0qB0bZMJLC/Dz41SvO5oGk+1mn+BTHYWnmaXf/ZED+fpT5hf8rlqEvKfJmhMc2CuM1OJJTfiFHm0e/9/SJt6oLUrM4uvuItUK2c+7gSCfI0X0dpbNlt4WsxMXL0uZP1c2E53Zg/kcBM9dPkh/r6k/9kXlmHIEWjfzLtM19HQT7nvb+dN1xnnl/mKH3hJB3UBJk3rwxS3+/mKReUIFGSHO0YYO60RIL5/DaYSLCaVs6/6PLJubTyb+FrgbTCSPiCzEyvP1HtX/rHZdzwp7STTCTUtuvt61xtzMTGGJeVvo/nwOs3/cEuE6xcTgvfjf6UstDPZvt6io15a/uqGXtX7KFTly3eDnGgxMZHcrCWyfbnLBv/mc6zduyiPgBUtoeefJn1iavHpRmzcgMD4O0y1uJIY8nTNDNbf+K2p+9sbXy+duOaNL6tGnycHDV4XbE89r/sxWZMdSP0CWHdWwbHheuZXR98u9Vzc2KOVv5oc50mOa4JKA+hrMW6yct4Q3qCXrftGGMdrijT9lauNT4Orox/T4+p47Fo4/HgRELlupdnKGBty6v1seJKRhiLHxunhXdt22zXcbEbiSQS1DrMfeJ0Pd7Grrk5MV6VXnA/J+I+HOvx2g2XIH+r4oIcpXxenxHe/Km0IZV6w++xagyHG/xgQTLHFvc2E47fGGjrRAJn92MlYxRqD128aciOOwdrBR5t04KStQ/1xDXN66TilDrqAq2NI1cIZug8g5rGybD4mJ8SbaflJzbCHbB/fUeLXA/DDOt8azuoGo+PrbDt2F6kEa4V57qp7Es7JxIY6utjegfo4sdscGdVFlHbI4syUcog2B4aSm8HXy8/3KSLvldZg+1h9Tam57k0T8zIyuc4Qp1hON2IWl0eGnSBjfhVAtJeUOfIsyM09tY8LV7PUObqLE2eG6beQ+JneMB5PiCIlHQigak+Vc1NHaH+M2M0e5Xt9/U0zb4yQv21/eZPai9KgbN2TSRU/576RT+NvDJN8x/w4+Eu0vxbozT4C/GcpWjwiuNi2ZKaIOWhkzRaPf8fzNPkmX466P2t941JGhM+2/xEwrdUYOent/Y5z0O9NHzOKyu2z9NinU0N0vxySLlHVX07htXBwfJ+VM7VyZdCntqWFl2uqptqSK9cZiM0Ibx9cfAZdh2/ky7XnfQ7kzT66yPK0+FByUDPL9I0rFz78nVWrZdjNPKssH1tIqG6r0ob49Wz6XODdEQsC37ebsnbaAe1iYSZVcrn88GKCbqEEgnS2xyeKeNaIg6JhM00Dfo+22+1Jodv0eXnTsrH3obrYHAjY3gC0+ixU+answUaHVybkPvLNh6n0+9tWU8DWWZD7ENrpt20xm28xff1fEb/xnGjFL9aqL1lb6Nx7MLGcWtv+4M3Znvo1CQf/3nf19I+Yy3/+Ekf6NZ5fCwsiVDF9BS42eMj1+ymcdZO/aPxifO08oPtdZrwuIbXqWm7Mu55fq6cTAnfdryxDjd4oD2gTfXFG6KNx8MSCeVAq03dPTZEC3dLbm2207jYjUj3Dpv2QJc411ipC1HOieZh5JDpqP20Ii7I0VzjluXF+wRzGzaNUxLHFuc2mxC/0dD2iYQyDzbomiZzLll+suNa8JRDzsFaBf4qzEczmkyWLM8mzXxkmIZJfAPA+QK1QHk10GYRYfk1Nvf54opfr9DMqP8JGkmeUZ9dCZ7GxAr+OpLFOXhxipbu2NXR0l+WaUrJ7NdkDcx4ptqJt71II1wrXZ5I4OxtLBjPWw+fSqj6emyrEwmlXVp7T3jqRWsPPTm6QGvfWFZo1tHk052FbvNl/sp7xLY1gOJX15RXz6sepwVpkNmkG1GLy0NFF9hIxjxlqk9tW5mivt+laT1wmpImJBKYhU9n/ckErb008j4PtsuBs3ZPJISbov43co0/sa1Lymjs/e0irVuVYbKJBG7+T2P+ZILOVB8r40J4uUfW/3aMpMX0L/KaH0yHwKq/zHTJQZ3sOn4tazdV0a1F5S2GcFOsrqjblvc1RP5WRc7t7Y5mqUskWCleBwklEjb/MKh8jsvO9W8maf6DNM2eG6TJ2jRoDokEZfHtmjzp+E6aFq9M0sg5wzRjmkWXRftmGkmEJmdD2IzN+FO1DmOQRgfXRqp9n5AxTHlM++YSbbmOUxnyXPNnaSVyF6pIW+/6n873WS7b5Uj76kSRT3V5lp4MCA7xp+5nbmyFrkMRPm7lffwZWjFN2yPRRmMt7fipRDs3poz9bV5mC1H62RaxGf6kt3Mf/tEOLb9p2i5/Kr2+tqTdddqccQ2f4svYBvFr5N36lFzh244/1uHE411amdQn3HrGVliJiiSVSOAE193jIwu1uJ/r+bIfF7sR6d5h2x7sbdCCqd3iSfLaFPDRzom8FoPFIssGmhsX5Biu8aDy4m8q8Hus4+WTxLHFs80mxW8UHBIJbUCpSHvfbFVe9ai5TbsPi8FzTSZA6eEubUv7sUFb3+xRMfC1PQa7yVcrSvCCxh3IoyLt3pXLZOPODu09TOL5FF4d9mjnjvJ7d3fDz4GBUlE+p/x8Nrte7QdK328L52yLdkyLo7cBxus86i4/LlHxwQ5tKdvc/r4YfZu28N8Wy55fm60u+laWh4AusJGk+U/SNKF5Yrluio78eoLSnwRNuVO1OYmEsvlVmj9Xf2Je9eBzbJ8/rQYkOyCRUNikzFvimxQ6+bmYpMXPbc6FpV9madJ0/lN9NHpl1QsMt0cioexmxrzPXhllqlN1JZZIYN5fp/Tv9Mm41EthazgwlbcaXAKr+jLLU/aS8nS/4MFnRmne6joW5FOb2dTLZ0do+rr+uip8kaFp4e0WrfyNjkuLtN5mC++KtnMiwbf2jcZ63XdJJGgWTlY17n/Qd+3eamiFcaH246v9iXbsy5eKmjET7xM/aL/91fWFW7aval+Wy/uzUTqNJc054OPIVveNoxL0IBYrNzmGsk27cRyob7tMfj4ijsVrqOcmjm02gZIypmk0lhB3rMOJR/Jvb3/fogtDV3fjOH61LWmHcbENjzokXtXkuKARpbxiaeOTOLZ2KS8HOiuR0AXUn/6PY3ERAAAAjaILbDTFQp7Wc9UpSzxz65SPOgd/s/Ttd47W1bn+lek5xpaVv7eZhfw65cTzwMx+upnsubgn/2b2U82iue3mvU1azQrllF2lzdCFwxNQ2Y/cLcsn6qVEgltgNTD5cr8gXxOxlEuB8purlK1u0zN3K29fL9l+5W/lpO9nrmdpVbdAcxva1okEdn5yr/kXFxeNlkhgfsHaz6A3l4LevlGnAKtquRZIKwQAxIDz2+0AAABANJBIaCrCAi+haxcAAABoBrrABmzQDyeEp8b72vZJWLifVJ7WdgysRnorBjZkeycSuPyNlJOGNz9SNBFpaqOKhU/naVSz6HrZF4Levlmn2Wf83xm+GuNbVTELAIgBJBIAAAA0CSQSmsnjjdqcZTZrFwAAAEgeXWADNmbu0tF6ECuFoCtsA6X54+0XWa6KRAI0qr6lFeObZQXprRT+NklYvc3R5NFqPfVMjVGmjd90AwDEABIJAAAAmgQSCc3k6wV6unxz76Gp250wCRsAAHQ/usAGbMB7GRoVpuVI/T7TEdOowO52faa/Hlh1WGS5KhIJsBMsXB/zrSHS7m0wACAGkEgAAADQJJBIaCZ8UZeHxbJtuSgKAADsQ3SBDVi3kHeZEmOd5l8Qp+Popcmc7nMQNlEludX/jv0iy1WRSIDtb57SL9XrecWjbd8GAwBiAIkEAAAATQKJBAAAAPsaXWAD1s1eSNGRX0/QfHYz8KnWwhcZmnhWntP76CtZvI0AW+u9VZoVk1u9E5SLMM0LEgmwvSxQPi/+d55WZwb9byOcWWzbRZarAgBiAIkEAAAATQKJBAAAAPsaXWAD1pUWPE0dob7nRmjs0iRNVj03TH2/8C8KmnpqgrL39NuEMDG/SNNItY6eG6QjwpsI/A2Ziazb2ghVkUiA7WVlYeiDvX3U90umpg0+cKC/Ixa6BwDEABIJAAAAmgQSCQAAAPY1usAGrCslEqxMUd/v5mkVSQTYCr+Yp5PaenmQhv/gPqVRVSQSYHtZSSTIdVw0RYNXotf3ZgoAiAEkEgAAADQJJBIAAADsa3SBDSiYX6fFt0aoX/vEq2DqCPWfmabFz13WVIAwZjWJhNRTozT/SWP1EokE2F4GJRIO0vA7qx0zrRwAIAaEtRixHiMAAIAkQSIBAADAvkYX2IAGC3nK38pR5nqmbnaVNvPRpouBMH4LlP8069XPLK1uxlQ3ed3PV0V9h612kxbPHFHWRDhYTuZmNnWfb18BAAAAAEDngEQCAACAfY0usAEhhBB2hPcLlO/gqeQAAAAAAEDngEQCAACAfY0usAEhhBDC5AUAAAAAAJ0DEgkAAAD2NbrABoQQQgiTFwAAAAAAdA5IJAAAANjX6AIbEEIIIUxeAAAAAADQOSCRAAAAYF/z3XffaYMbEEIIIUxOfv8FAAAAAACdAxIJAAAA9jU//vijNsABIYQQwuTk918AAAAAANA5IJEAAABgX/PTTz9pAxwQQgghTE5+/wUAAAAAAJ0DEgkAAAD2NT///LM2wAEhhBDC5OT3XwAAAAAA0DkgkQAAAGDf87e//U0b5IAQQghh/PL7LgAAAAAA6CyQSAAAALDv+cc//qENdEAIIYQwfvl9FwAAAAAAdBZIJAAAAACMv//979pgB4QQQgjjk99vAQAAAABA54FEAgAAAMD497//jSmOIIQQwgTl91l+vwUAAAAAAJ0HEgkAAACAx7/+9S8kEyCEEMIE5PdXfp8FAAAAAACdCRIJAAAAgAB/UhLTHEEIIYTxye+reBMBAAAAAKCzQSIBAAAA0MAXgsTbCRBCCGF0+X0UCysDAAAAAHQHSCQAAAAAAfz888/0008/0Y8//kjfffedNlACIYQQwm/L90l+v+T3TX7/BAAAAAAA3QMSCQAAAAAAAAAAAAAAAAAAMIJEAgAAAAAAAAAAAAAAAAAAjCCRAAAAAAAAAAAAAAAAAAAAI0gkAAAAAAAAAAAAAAAAAADACBIJAAAAAAAAAAAAAAAAAAAwgkQCAAAAAAAAAAAAAAAAAACMIJEAAAAAAAAAAAAAAAAAAAAjSCQAAAAAAAAAAAAAAAAAAMAIEgkAAAAAAAAAAAAAAAAAADCCRAIAAAAAAAAAAAAAAAAAAIwgkQAAAKDMzz//TD/99BP9+OOP9N1339G3334LIYRQkLeNvI3kbSVvMwEAAAAAAABgv4BEAgAA7HP+8Y9/0N/+9jdt0AxCCKFZ3nbyNhQAAAAAAAAAuh0kEgAAYJ/y73//m/7+979rg2MQQgjt5W0pb1MBAAAAAAAAoFtBIgEAAPYh//rXv/AWAoQQxihvU3nbCgAAAAAAAADdCBIJAACwz+BPzSKJACGE8cvbVryZAAAAAAAAAOhGkEgAAIB9BqYzghDC5ORtLAAAAAAAAAB0G0gkAADAPoIvCqoLfEEIIYxPLMAMAAAAAAAA6DaQSAAAgH0EpjSCEMLk5W0tAAAAAAAAAHQTSCQAAMA+4eeff9YGvCCEEMYvb3MBAAAAAAAAoFtAIgEAAPYJP/30kzbYBSGEMH55mwsAAAAAAAAA3QISCQAAsE/48ccftcEuCCGE8cvbXAAAAAAAAADoFpBIAACAfcJ3332nDXZBCCGMX97mAgAAAAAAAEC3gEQCAADsE3SBLgghhMkJAAAAAAAAAN0CEgkAALBP0AW5IIQQJicAAAAAAAAAdAtIJAAAwD5BF+SCEEKYnAAAAAAAAADQLSCRAAAA+wRdkAtCCGFyAgAAAAAAAEC3gEQCAADsE3RBLgghhMkJAAAAAAAAAN0CEgkAALBP0AW5IIQQJicAAAAAAAAAdAtIJAAAwD5BF+SCEEKYnAAAAAAAAADQLSCRAAAA+wRdkAtCCGFyAgAAAAAAAEC3gEQCAADsE3RBLgghhMkJAAAAAAAAAN0CEgkAALBP0AW5IIQQJicAAAAAAAAAdAtIJAAAwD5BF+SCEEKYnAAAAAAAAADQLSCRAAAA+wRdkAtCCGFyAgAAAAAAAEC3gEQCAADsE3RBLgghhMkJAAAAAAAAAN1C4omE3ZtzNHfZM7NFRe/fdZQeFqn4yPsPABKkeGepXi8v36Rd799j5cEGLb15nk719dDhw4fLHj9xkW7ueX8HreX7m0IdWKKtoMapS9AFuSCEECYn6A6a0m8EXcve7SWaOn+KnjxWGQ8cPnycBiZvEoYESbFLN2vX6xwt3dkHnfwEcYnngPambc5lcYuWqvvBvPm99+86SkUqPixS6bH332AfgDa83Uk8kbA1W+0wMc8u6ztMj3dpebQabD1O5/+M7jlIlr0bZ+v18vAMbXn/Hg8l2smcp+O17YuepeUH3sdAa7kzs+/Oiy7IBZtlnrLvTNLkJc/31zWfadD7Bcrn81S4r/lbJ9ktxwEhE3QHyfYbQdfyaIeWxo4LdUfQNC4GMbBFM0JZn72Bkm4Eq3gO6Aja5lw+WKaz1f1gztzx/l2hxMbrA95nep6foy08dLxPQBve7rRFIqG0NlX/DPcYayS8vwGQBEkOCPf+fJZ6xPosiURC24BEAmyqmzT/3AE6cMDzQlbzmQa8NU+DKW/bh4YpfUvzmU6wW44DQk/QHSCRANzZo5Xag3IaEZBNEASh4gSJhO6hsxIJO7Q0KOwv8+yfUfv2B2jD2532eCPhzowceEUiASRMYgPC0gZN1V5bZp6YorUfSt4fGY/2qCj8J2ghSCTApppkIqFAmXPCtpmp13Kaz7W73XIcENYF3QESCcCV0u0paXw7ML1Gu8IYoLRXJAwJkgJBqDhBIqF76KxEwh4tnxX2l4lEwn4BbXi70zZTG61UX/s8dooufoypjUCyJDUgLH48Lmx3gBa+9v4AmkLph21ayUzR+fcszigSCbCpJvtGQvZCqisC8N1yHBBWBW3K4xLt3l0pr2V17Svv3wJAIqH7cOozOlOkm69W6wvzxAJtY37vJoIgVJwgkdA9dFYigbXTd+bolPeQ5vGRa7SNqY06l4c7tHFjjsanbdYHQhve7rRHIsGjVMQiKqA5JDUglOr74BLteP8OkmaPVsaE18dnkUjQoQtywWaZ9NRGaRo+5AXfnxqlxY6d2qhLjgNCT9CG7K3QeeHtUVMAQwSJhG4iQp/RGTkIcuqPGBE0FwSh4gSJhO6h0xIJZR6XqIgpHTqarXeFtYKs6h3a8HanrRIJADSLpiQSUN+biPLqIxIJWnRBLtgsE04klOWLFBc0/95pdstxQIhEQlviEsDwQCKhm4jQZ3QGQZDWgvKPE4xvu4eOTCSAjse93qENb3eQSAD7EiQSug0kEmzQBblgs2xGIgHC1pn/NEuZ6xnK5DapoPn7fhW0IUgk7HOQSOh+UP5xgvFt94BEAmgFSCR0H0gkgH0JEgndBhIJNuiCXLBZIpEAZQv5POWdbcc3NQqUvdBbr9vM1FOTlCvoPrv/BG0IEgn7HCQSuh+Uf5xgfNs9IJEAWgESCd1HY4mExyXa+2aLNm5veG7TrjJ/WaKNVamo/P4GbX8fcZ0FPvfa99vStjbu7NCe63xsfDsPdmir0e0kje94t2jnQUxrVDwq0u5dts27u1S0WRDn0R7t3Knuh8P3TGiPTS7/tk8k1OqR/XkpPdyl7doxc9n1+DDeelcqir/Bth92nkryud36Zi+hdVASSCQo9bLhfWftVfm68LbXinZBF+SCzRKJBCiq1Adbn5unTe32Wmhuko5q9nXk/bz+8/vM2Kj2rar3EGbkPm+SxN2nqxKhX2QkgUSC3D+K4dwkVY6usHKXxlq87xJ1P2rnUDiuRvpCuu1ZlVPnJBKa0bdPDH5+yuOxBPZZd31IP9FY+ZeUehVLW1srD2G/Het/qagcdxztoXqNxx3PibMtizP2Y0PcbZaKWvaNtK+cpM+lA+o90TeOTjiR4Gs7Gzhv/uuuffpfcRxnnGVlIvZEQgLXTmKx0S4lWiKhuE0rs2fpSWGhMtHjIzO09n3lo3aVxu1mX/x6hWZGn6Qe4TuyPfTk6DLtep8PovTDBl2bGKLj2u1U7Ok7Swt3it43DDzYouWAMuHy7czc2KI9U4X8ZolOCZ9/+t1t7w8W3F2gp2vf7aGp24aL//Eebbw3TkNP1H9H8okhGn9vw7yPZQwd8Me7tDJ5Sj4vAQ1F8Hnk53CGVr4OKXeRkGPreX6clr6qbC+2RIJyEwxTqtuGQHbxq2t0WjkG4821uENrQeeTWz6na7RjU5Smffp6maZeFBbJqdlDpyaXaUdtuItbtPSqUheqHjtFF29sU7HRhlnaVwvVgaIpkbC3QQumennsSTr73pbbvj8IbmOOvzhO124Ht3lxoQtyJW0hv045Pt1J1ewqbbbRU9Xy/uVo/Z7+czULeVrN1o8n++kmFe5rPuczPJGgllXuVr55U8Tcy9N6rv7btd+3OjaDrKw2q9PdxLVNk838rVjspERCgfK3crT6pe5vzA8nKKXZ15NXNvWfFyxsrtLqF929HkZDPC7SzmfXaFx7/616nIYmrtHaN6abfInW3hQ/f55WHnp/CqVIK2PCd19cMvatY+nTxdEvMiCNRyxUt2/qN5b+YuofMVn/a+ojm9FIndj7xmGY+kKPdthY77S578LGeit/sQs0FO+u0FzIWOv4i1O0bHtcIeNQLh9zLXtj0TKN9hktkOtImEJZq8Tct48UODTVCwXTdbH70UU6JZ2fgON1IPj6OE6nZ9dot9xHj5BIYO3t9kczdLZPWIhblI8BZldo2/HyazjW8JDV98vh9WHKdWwVezxHJs62LHhbXPvYjw3xtVmGeshjFu+ayr4ytnaqZwmfSxf2bgf0WY6dovGMN462TCQ4xWzC4lxcdq3M3bYo3LD2oCzvf6346l2SbW6ZOI4zzrLS4Rgj85dTtGvnydFrtOWyy2HlUL7XhsVG9yfOiYTS3QUaMjRSkqyhmLtTsryQbG/2JdpODwXcREQtGprLttsK3qedzPnAG41qz/MX6eYP3tcldmnpReGzv1qgbctKuzUrNHLHpmhD17f/4SZdPCFsP8Ce5+doy5jV0yQSHu/S8qimodWec5fzeJzO/9miW2B9bJXt7bZpIqHE/m1A+HxV3c11b21G6aSH+MRpunY3ZNCn2afdjy9q90nyBCtDr76U/rJEZy32a4DVm4Zy3dK+WmiRSLBt3wZev2nVKbAqu7Ks03i5wfKwQBfkSsT7m5R5a4T6D/mDizUP9dPE9foTy+szfcLfUzSRVbYZYOH6mBDI7KfZz4W/ZyeE7Z6k+S8q/57/ZJ5Gnzko/K1qivp+N0+rakIhn6PZ3/RpA6YHUn00emWV8uLnfZoTCfnlaRp+KiVvsyorp/BtMw3HGWye1j+YphFtOVQ9SP1npmnxc/uny/OfpGni10f0ZVU2RUd+PU/rmu+6HkdDv9VS2zyRwBNm1+dp8kw/HUlVftt8TeZoslfZz9QgpXXn7n6B1nNpmj03TL1e+2CTcOhkI7O3RjPPBw1gVY/T6fe2tfeR0u0pqc91/iPLUZbSxxnK6PpjMfbpGuwXBSGNRyy0SSTY3eN7aMhwXmQS6BvboClz+mGFzgcFF2oO0MWPg/ajSGuTQUkw1fDjsh6HMqVz2Gif0YI4EglJ9O2TDGpprwv2b/56bN6GHfbXR2UM65hIeLRNCy9btrdPnKcV7TheIYZYQ/Gzi04xhuNjK14iJZhk4jlV4mzLXLbVwHi+RtxtlqYe2tY1YWwdRLLn0oHHu3Tz9QH5Nw2W6+kPMScSHOJcYe0Bf0DAdlu6fUqyzY3lOGMsKyNJJBKsr52LdNPmfhNbbHR/4pRI0HXme/qGaPzta7T82Qat3bhGM2L29tg4jYtPMhkvJLubva9jwjNEl5dpzXsFZSUzV/79SoYqoKHhT86P+W8S/MngmctLtMK2xY9l7s3zNOB1pPX7xBtjtcHsoSdfVrejyZodYw2EphNS/Oi88LmnaeGu94cgShs0JWxf+yYDb6ylfeAZuyla+qhSdms35vzZ4xOmRIY/kSA38mzbJ7ynBnznXFNm0nlcoSVfefXQ+McBg17fsTGfGKDzb85Vju+jJeUcDND4q6eFzzfQ8YgzkfANuw5+JXyeHUO1/qk3V10n/fiJ8zR1uXItlo/5bV12dYBtK2DAoe7TxwveNc8z7jPl8vRd55490xtUeniTxqvlzJ86eJtfB2u0/N6M5umEHppaayB0Lu2rhWGJhI16PeJPBk2Vr2HzvgfWSYbvHPEnmd6stAsbfLuap4sG0g5vIUVAF+SK3VuLNKIGFQ1KAcTPZ6lf+FvKeuqfAmXOCdtVA62awPT6+yPUW/s3g70TlPWSCYVPZ2nQC6YG2cv22fwGgS6RUKDsa4bkhGLq2UnKBb0t4ZpI+DJDY6bkhdaDdPKtXMgbEgXKvdFvdTwHDrDy1W3D+jhi+K2W2t6JhOwF/28HJvfyq5S+NEInf9lHJ89MU2ZT8xnm5pWTvu0ikaAhoF9z7cZapa90WXdvMiTpH7PBl9i/YIN4m1TCbmZI2LbuTYaY+3QN9IvCiDuRsMb2tTomKo8f3uPHzM/LlOYJxgFa+NrbkJYE+sa2qGX+F1bm1YE167fwvl+5zn22TNec+5XyeKEyZvT65vy4WF91yveU8RAtfeN9XcV3XfC+6Vyl3+ttr9z39cq/0xIJSfXtm5pIUMZFPX0DXr01byOcgPF2+brz99V7Xh2n88LnA4NhPOmgBJP4NT1XbmsN9fTYON0MerMrpliDVL7e9TiXWansl7ZdOExDf9zxvq0nuXgOJ962LLbYjzUxt1lqjOu/N+oPXpbHhZVtG8fWb6757+cCyZ5LB7QPlB6ngfNTXn313xsH2DV6Wvh8Q4kE3zUsx7nK9y/2++dPVK7JoPagdGfOn8z1zpXU/3q5Wg/8+5RYmxvHccZYVoHEnUhwvXZevRncz401Nro/sU8kPNqQO/Os02KcnqS4pc8WGS8kpaLoKmzxJo0Ln+nhr6+ZTiR/FenGTdLfRtkN7rJ8g+NvCBhfTXtcot3bCzTzkX+f9v6s3NxOXKSVbwzNve6phBeXaEc9hocrUsfHZnoj+UkzdjMTX+Xl8AGk2GAcG6IFb4ofFf4qqnhD0ndGlETC2zM0wy9Ett2527vSXGLFH/akG2Dx43GpDAZeNzw5odahY1O0pssC8huXuC+sERi6bHj9iHfqtJnyODoeFZxuHMoNY2a2cqMceH2ZtsXOaWmX9oT/Ln01J3ca+Pk0vQ5bvhaUJ+ZMZcmR9qmHesrnld3M1DrF+V5tgM/SWa+B73l5Qfta2e5/K9dMXB0YtU7aDAClY32ani63b6xdM0xD4Nv3gCke6OtqAqaiqTz8dTKoM9o4uiBXrN7L0oSUROBPg4/S7FVvupkP5mn60igN91aegJcDiHlKvyR8NzVGGZvFWr9M03Dt9w7Q8FXlyXk1MP3+pJdE4E/aj5X3bfHKNI2d6aeDtc9VTP0+Q4UvF2mkmkRI9dHwK7OUvr5I82+NaZ7kT9Hon0zTtPgTCetXBmuB8IO9wzR6iW87Q+l3JmlU85R96oWAJ+tdEgm35v2JkUO9NHxukqavLLJzlabZS7rjC06WiMdT9lA/jVyap0VvqiF+XLycK0+4N5ZIiOW3Wqo+keDyJk6SOicSLEUiwYLSFs0pg7yhtHlKPT71oPxElT5Jv/3u08JnbKY3kt+SLT8s4P2lSux9uoj9ImeUAa5NUkIOZnh9BlN/mvW9NpRgmq78qsReji4ofaGBE5Xtl8tc228p0pb6hPCvWD9ae3CVvll5nHXX0E9l7K1NyX0mbVkV6earwm+a+qYexbvLdPMv3n/4iNBndMZibCuQZN++mYmEmfIb8pWx2K54Eh+ya9Z0AYRQ2pgRpu9lsvG2adxe/Er/dLa5/Hm9Eq6pgHGAum1zkDfGWAMv32MhU8LurdGUNM43zEzASTSew74SZ1sWW+zHhTjbLI7cDjx9YqBcPqZy8b/Vr4nrVEn4XLrAx8jidntenqMNQ5uhxpqqNpJI2E6L/ZsBmtkwnzs+1diKaUrhByu+ZPXpdwOmtXm4TcuT13z7lFSbG8dxxlZWjriXiXLt/Kqy38Y2xReXCrh2Yo+N7k+sEwnbafGG2MNuyEGvcTF8AV6msdJYdLaki+tU9GCbJsC3HaUT/ojdtMXKavX6mT9L73+9vEQb0+KNlW3X1HiVUea+1TxltvNH8Ymy4KdWONK51nZGlA645XbVMgvsEHDEp9uZulfqfR0W3ZN4Eqx83xYbUG47JBIqhpbJ4x15+ivDmy0q6hMdxgSVb5+Cz6v8Bo1n4MBWmW/58DjdNN+/HGg0kcANa9fUwcZpfdmr5yisbVBuZkHBhkbRBbniNPfGUSFA2EsTy+bpcApfZCh9XQ4gylMUpWjsevjc6fmrw/Xf1CUfpMB0ilI8sJwapPlbyue4vgD7SRp8ofLUfvmNgLz/O+tzSkDb+MS4Ejju7a0kNFJ8iidDIPVW2vd2hzHoaptIKOR8yZ7+N7KUN6wlwKeAkvfBkCzJL9JI7TNe0sO0PsH9POWuLNKq7m82xxHXb7VUJBKqIpEgI/fZLPrbHPXJKt3UmN8v0VBtu+GBTXndLs0bsgn06SL1i6LQcCKBG9LvVQeqrK+5oTuOJMrRBU2ZD8xumIOWZWzGM5w92lqzmbedjWVeF/bh2JymXy6PFU81NJhvs0RCwn375iUSKjY8damIL+BjUTa8PRT2h2sq/9Ka+DBeeHsrjzsNgaq4Yg2Mva/WrObKL312sfZ7/DjmvvL+oJBoPCfutkyqgw3EfpyIs83iyO0AN6xc1LG1qe4mG5tzQDmPNjExX3KQGT2RoLTnIW9xmNEkFQOn7jOTTJsbx3HGVVbuNJpI4IZeO0pc8PR/689f/LHR/YldIkGZOsf2lWj1RmquNOGdLbkRMQTwQmENxOtikP4srRg6RmHIr3s/HVoBa5TYsYrZY81TzfIbBj3BAxwlW+/ryNtMe6QiDbB0v680QpbbDX9F3o+09oOv/kRcU0K94bVNIiG8TNR5jkMDATWUc2ZqBNV9CrvWS6zTKH6eGTb3Mm/k6583d3bdUI4vSiJB94aQAh9wiN+Z2fD+ICCfI7vpyaT2LTR5GB1dkCs+lcDouUyEhYKzNCEE8stvBGg/V1X+zaOXcv7PSIFpbi9NZM0JCikxUTU1ShnjtELKmxQHRmhRk3DQB45P0qwuoSGqJjeOTlJO9znbJ/ln+oXPpWjwyrr2c5I2+yD9fp+8ToWLNscR12+11JgSCfcLlM/nZcW6Wtik7JVpmrw06TlL6dym/roq1Lex+Hv/vo19IPwGU1zIuiD8e+3v1e0K+7g6o0kkzKxK38sX9NuTjkvnPf932mGxbSfU/rbtAJQh95N7aOq2epNX+kwh25aeWtP0r+Lv0zEi9IsiEUMiIWzKCc7OH08J39GPXRIpRxfUMg98GERAfaCqwf2Q+4aaIIpyzkwBAjsi9BmdsU8kJN23b2oiwWF9PxvUsrFd30UOsprKVGkTbeIbj9l5Feq9f7vxxRqcUOIB2uNNOJ4Td1sWT+wnOULbrDJqMDTgKekq6tj6bd1gM+nYnD1qTMxqWm5+nUhB+0YSCUoZ68rLhr9ck8pmoIG1C5Npc+M4zpjKKgKNJxIsZm2IcO3EExvdn9glEljFFgPb/sGJiR1aGqx+j2msNHJF0d78lI7uUJQnUZSbrFXF0aIcV9AUJxrkgQXrYKiHy5++EJINPQEdXClrrelAyh0wi5tXGfn4/E/9qIkEm+2GvyKvQw7cssGN+CVlUGH/VJbyFkebJBLCy0TZb8eMqFyWhgC+sk/h8++qdcHiDQPpKUd9MN6dxhMJVgO3vRWpzvm/o7xRZNs2SGWS3FM3uiBXfGZpQgwQvmK7xoFs7pL4VsNo8PRG0roKR2kyp/mMmkh4KR28cHEhQ6Pi55m+6ZIU8++PCJ9P0cSHus/5A8f9MxZBfKYa/NcGm20C8OzYxsSEgMN8+/KT5P63ReS/s98PS5CYtDiO2H6rpcaUSFDrN9dbf2P1nWHfdF1VU0+NUeZLeVu6twWCrO+rcu2XFc6dbh8DPHnl/6PM7zXrdwReu2pCjztMaeUYW6EL6n3avr/NUAZQPWwQrCI/6WgODqr9UH//KoE+Hce5XxSRhhMJlgPJr+akIKj/OwmVowtKmT/tsFaTFASMdT8sgigWD3+YaadEQvJ9+2YmEhp+Q0ZBqmMuZaOMNbTlL72lZdveKudLTSjGFmtwxS6Wklw8J4G2TGmbIsV+ksTqGlHaLavrb49WRkO+k+i5dEFpSx1iYvK5bySRoOwDayeiTPknT/nT2EMMybS5cRxnPGUVhYYTCTFdO8nERvcnVokEOfDt1lHceLte6OYKYHHzUzOvrNE8Nbls9bpfFbnBejpk4bMAlE6Cc2UKHViwxkycy9b4hLI8TYyusyI1ioOs0+39ezBhHWzl7/zpE+8vRpQys15kN6BRlc+nW/B1979jWmxZoZFEQnjQXh7YO7+OFhoEZ0j7ZHONKB1qmzqmDODNgysXwuqsBulYbd+MCGur5HNk3TZECGpEQRfkik8lMBr4FH+AyqLL5jUHvqX1d4QA+zOzpF0/QAlijrwfnBTwB3hNbxgIsn3uE35jbFnzmSjbrapsv0+XgLAIwBf+NCp8xm7qqJpKgiX1mvL2h1LOtkkSnxbHEdtvtdRkEwm+NSR0KtdM+yQSNunb3CQd9f0t4JpRprsqG5Y0bJIuyANZt/62zQBKXYfLeP+9uyBMO6AZUCfQpyvj3C+KSMOJBM1DQDrCfiepcnRBKXOXhzv4WnH17zo+MVwqUvHBDm3driyYOjchPtWqOyblQQ1m4LzzgUToMzpjMbYtk3zfvnmJhAbG1lqUoKdL2TzeCC1/+Yly+/Y2qDxjizWE8bhExYd7tHNno7II9+Xx0KnrEo3nJNGWxRD7iRXnNosjtwO2idqwazb52JwlygMMTjGxH5ZjW2xZfiuC+cRpWnCa219pa8IW6g0hqTa38eOMZxtRcC8T+drRPRyjI+x3komN7k8sEglKoPD0snWmkWNXaew6W76V+8sep6GJa7T2TfjlLgePXQdoAl+LAyy3TncZm0CqzVMS0nZ0GTX+2lj17w04uqKcN+Vi8v1dg1Jm0ZSDvfJN1DD3rAGbm1IUnBpJ6YZhEchWOmnur3XL15m2EbQcOIg43xhs6r8zjSYS7I41tK1SzlFUz/45jjLxowtyxakU2OceOkmTpvn/jSpPFp9ZNAQDczR5tP4541sDUhDT8NaCZIEy5+rbPfBLQ4JC9It5Oln7DdOc70rg2OFtAH6s4pRP2rc9LALw8hoWIW97+Nyk9AvV7zLV/VffdjiQor7fzdOqbbKkqsVxxPZbLVWfSFCnD1L1TdWjC9JX198IVU4mtVUi4dt1mn3G/zdTIlB+K4jrmChLUHuUPptjf5sj3Y+1fRu7t+bEp4C1T5Ym0Kcr49ovikrDiQTLfmPY7yRVji5E6gt5SN8NKEe+mOzdFVp6e5xODw7QceE7eg37oa4F4nn8xXG69tmOxbzmVdookdCEvr1zP51jWS8iJdhsUYKUbmUTXv5y4jaiytz4scUaFEo/bNNKZobGR07RwBPC7xv0H2/C8ZyE2rJGYz+RiavNsm0HFILLuxmxOUsamWXA8j5sde99xMpZWpOoYk/fWZq5sSUv/K5DSTw2+sR5Ym1uo8fJiWMbEXAvkySunaRio/sTi0SC0tlybHDsKo19ReErZ5/SdCK5Pc+zjmRARk3al0aCx7YdZxNWgdTwVwSljKJ2MKicu6j6zlujQdvoimXdyPlsv0SCxeCt4QC8fJ0hkeB+rGoZ+vZdObaoxlMmfnRBrli9l1UW8q2Y+sUgTVzJ0qZl4Fpep8DwFLL0xHJAUNwmMK0oLTRrE/CPkkgoTz+jfsakRRIi9DjztHhG2MZ/zYcnSBTlBXgnKKv8Xf8U/EHqPzNNi5+GvQniaXm+YvmtlqpPJITpe2PBGKQ/SCcvLdLqJk9ArFP2nRF9ckFYy6TwRY4y1zNlp3/j/+zw/6n8repqbdqgkETCl6u176Rf6VM+d4D6XklL2819UUkAaBMb2rVXlOQfV7fweou0p7H+NsemXxT6Wrf0FKjhQZYE+nRlIt2XI2AZwBBJJJGQVDm60EiZK/uv24/iV9fobJ/8JkG4Afvx/QpdfN6wvWOnaPy9DdoLTShE6DM6Yzm2bULf3rmfzrGsF0mNp8o0VDbh5S+3l1GVj9mmDXaiuEXXRp/UBNOD9R9vY/eX0DqUYFvWSOwnCvG2WZbtgEJweSd8Ll2wuAcYsbwPW7cx/FoZOS58VvQ4nZ5dMb/N0nA7LBOpjG3vxY0cZ5U4tuGIe5k04dqJaqPXTZfQcYmEMsUdWnv3LD1puKkcH1mgDc0mpH1p5ObeSKPJsWysgtc/kBMN+sWnkrpYlO0ikVDDqZG0vWFUacJgw3mfGE7HzIn5Zl2h0Tppd6xqGfr2XTm2qMZTJn50Qa7Yzedo+rmDclCv5kE6eSEd/uS48sS57m0DcS2FwEWZkUjwtNhGiGGJBO761VHqk94WqJt6apimw95QcThfDf9WS00ykaBfRFtea8PTsHi3fK4rmqddCkkkCOqSA/rrhfllmoaVz2qThsq0W1ztwust0p7G+tscq35RyPoHUqLBtHBqAn26MpHuyxFQ7tU2/XgkEjQo+6/ux97Ni/LCnsyevlN0emKG5t5bprXbG7T9fZGKRTbAcdmPx0Xa+WzBHOzjUzXoBoI1IvQZnbEc2zahb+/cT+dYng8kEuRjtmqDbXlwky6qTw4fe5JOjYzTzOVrtPzZBm3c3aXiwyKV+CLQwuf8x9vY/SW0DiXdlkWM/bgSf5tl2Q4oBJd3wufShZB7QCCW92HXNmbvzhJNvWgIkh87RRdv7Pjfsmy4HZaJVMYu90BGpONUiGMbtriXSROunag2et10CZ2ZSKhS7kheo3HdkyknWEOjLB4i7UsjN3eLNQ4CURsr0zQm0uuuylNh4qtkxsWnLObLjUSEDnijZaahkfPZkYkEmzUOApGvM+1cc677xHA6Zk7MN+sKEepkhGNVy9C37w2fo2TRBbmScjM7S6PPGBIKqT4avbJqDv4zpUWX1bnOpURDyHRFSCR4NieRUDa/TouXBumIIch/8LlJypoWwXU9X438VktNMJFgSA6o9bSi/jy2RSKBv2ngW3TZP2WRvPYH12YKs+ZpT+N9Nul+rEy5ISJN6SG90SpPmWBcODWBPl2ZSPflCFgGMEQSSSQkVY4uNFDmgWskPGRjGDHod+IiLd8NeMQx4n4Uv1mja6+eksqx4gArT1MIJEKf0RnLsW0T+vbO/XSO5fno6ETCZTF+EM++NzI2leFTcIj7N0AXb2wHTN8VdrwJx3Oa1ZY5xn6cSKTNsmwHFILLuxmxOUukMnA875b34ahtTOmHLVqePa2ZlqqHnQelbxNzbCLJNlfF6TgNxLGNMNzLJJlrJ5nY6P7EarFlaVGWgIGJH9uGLlpFEeEZNTVrry4+LDdEjouCiSiNjfN8ltLNNmhuU2UuW2GRKXF9AN0iy1Wki8lmUWQrInTAlTKLYwE9eR5Kt3k5pXKJsePr1Eg63zDk6+Tw246Lc6iDFV0CK8JNzPnGEPPNukKEOhnphh3WVsl/t11Uq1noglxJW/giS/MXTtJBKdDH1T81XVOaumiY0kIwuHB9rD6tjWmR5apdkUiIY42EkDUOLJTKJTWhD1aL3s/T6gfTNPyUGgxm9k5QVrcYd4TzVTbKb7XUBBMJuvpRVhfwb+dEAlOz6HJKunY0yYawNqHJuqD2TVzWfuL3QWmAFDSHq7QO1yla+sb7d2lOcs0iy1US6NOViTiQdkbZf5vgRyKJhKTK0QWpzN3GRnIgVp4PXi4vdi7DttvouX+wRUuvDwjbYJreqInSZ3TGdmybfN/euZ/O8J0/w/mIGuSzQpm33HaxzTIWYw1538fpZgyXn7zN+GINZ0NjDeH1LdF4TgvaMpvYjwvJtFm27YBM2DWbfGzOEmXBZKc1/qTyiz+RUIO/zXJ5SEk2q/2bBtthhSTbXCNWxxlCHNsw4F4myVw70t9ji43uT6wSCfKitsKAIwx14VFjpYlWUXw8Yh0O4XVtX+VgDZZ4YeinA7JBfi388NiK08ruLivty3PZVj8r/v7TtPB1+aNa5KeFdAsyRyFKB3yL5oQsv3bxPkdKa1P1fWBOWa9opZy/jkkkKAvEGAdIeuTyMlzHEQZyzjcGi869O+2SSFACOYaFLFuFLsjVNPmT46/1K/PaywkCWXmx1XqwUZ4PPTAIyW3XRIIx2KtxM02Dwvb7ZjQJGIvjlIPDY+Y3CrQqiYgX0k6JCP6GyoiyfoZ2+pmoiQRB699qqfpEgjlYb1CXSDAmqTowkaBbdDkl7LP0dlLF/ncCEpQt0IXix+P1+wfv3931/mCDsjBp8GKB8vSY1c9Kv//qzYC+bfx9ujKR7ssRUPohLUskJFWOLkhl3kBfWur/KYuBWvQN5bof9dyXaONtcQFd0xipnRIJyfftowROxAXXg85Hw0G+QHZoabC6bebgEvsXO+T6ZCh/5cE+7XowrrDrKY5Yg3xeLa4HJeaiO95k4zktasvCYj/WJNVmJRMMTT42Z4nS7xAfeg1DXew8sUSCx+5/i9tRk13KPcGxHVZJss0NI/g47YhjGyrO8aKErp1kYqP7E6tEgroSv222d+ePwmLAXGOliSmRwJAbJaWxkRaQY56I3khsvyv+zkBgMF9CmZs29EarfL7cwb8rnI+wQKX01NlhGojlCekoHXDl7Ypj43Sz0eymejO0TOjwzpmcae2URAI7ZHHdDNbptW/Yi7QyVv0e01RvIuyT842hqxMJ7OYrLoLu0jY0AV2Qq9muz8mBxJH3zQvjSosuVwP6+UUaqX0/KBHh2a6JhF/aPzWdf3+k/r0DKX1A1+I45e04Tv9SkOeh1yYzwryXpbGj9W1op+CJIZFQ1ua3WioSCVXDkoHy4utcoe6y47dPTrZGJx6u0HnhHtMTGMyXkfsH4YMj6fPlAJ3YTwgLqiXQp+NEui9HoG0SCQmVowtSmTMj9qXlabCUPlno051KH7WRc6+MWfXntp0SCcn37eWgo0XZlti+Sw9cmb+TbCJBHddbJlcf70iJUq62/JW4gEt7aySmWINarmFvp8l1yHC8icZzWteWBcZ+rEmqzUomGJp8bM4WJRFq+/T6ozX5OmEmnUgIS7bJ43eXdthPkm1uKCHHaUUc21Bol0RCMrHR/YldIkEJZpeDY2E38h9Y51lpIMyVxqKiWN6EpddsNa96qQ3oAOs8WmVO1d9XKqHdvHwlVrnF127tgozSDfLNNdoWGqfwJx3UG90QXfuL96cwHu/RnvZmELEDLiZAmD3sWMxzPcoUH+xpzpN6bKzR/yikkXnE6pq6cFWMHd+kEwm+Duox9j2L12Z32U1YfOrGeHPslkSCzWAgoUSCGgg6/OI12rEdRLB63vAgJgBdkKvpSomAkCCi9LRxP81+LgcVAxdZrtquiQTrQL7yRHZqzL/YLNfmOJXFa1NnFuW1JwKUg7mVc6H7XJi5N4S1L3RB7LgSCczQ32qpSCRUDUsk6N46OPpG5Q2T7AVlWiOHOt0s3VCCMex+bTU/rdLntgqISQPFU7R0V3iy0OZpvNj7dIwWJRJsAgbJJBIYSZSjC2oiwabOqX1pX9DQ7Sn70saMVAbac8+/b1MuVtPHRugzOuMQBEm6b8/Kt7ZtZljgxBdsDLgWk04kqNeHTWBeLpeKpvKXHwzsoanPLGvC4yLt7emvvjhiDU5vp6lP5TP1sZSE4zlxt2WW3w2L/diRQJtVxqEdEAgdWycem7NHTWL1vLpCe4HnTo2HVWwokWBTV8KmgVOTG5btsPa3k2pz4zjOOLYRAalOW72lkdC1w671+GOj+xO7RAKD39CkmzK7uJa+1t9si18v0fkn+OeepqfFRs7YWIVXFN6InJpcpu2gk6cOpHRP+2sCyQOvs+2a+g2so7B94yJd1FxA22m5Eex5fobWTIMeVvE2lDnHrDsWYtLiV1M0Vb3RGRdZlimxTvVA9fvl7w3R3O2Ai/FxiXZvVxYyivdJHj7tizhADil7zsNtWuGLv5jqztcL8rGxG+nUZ4Zje7BGM97iTE//Ko6nF/wknkhg+K7FJ84br8Vq/RXLqGd0mXZNN5GOTSQor6TyfVdv/uoxJ5VI4B2ky0rb8PIcbQRtv7RLG++N06ljCQzCBHRBrli9r/k3VWWansE/BAUR5fnPT17J0eKZ6nctA/Ftm0hgWszdv35lUHriutcLoPq0Ok51PvmQdSqq3pqnQSGQq01A2Jx7Zu414fd16yzYHEdcv9VSkUioGppIYPoSBuU3THI0Kb51olmIuR10Rl3w8fBxOp8xL7JZ/HpZnifadvDL7lVi0mL8zalaYMS4yLJEAn26ZiUS1OkY2P74+kXKfyeWSEiiHF3wJRK4A3TxI0MdeLBBcy/L+zukmUZLfiKzh86yz+iGLHtrM6zvU99WRc2552X5fMjip493aVksS+M4KUKf0Rm3IEiifXs1UcHHSmv6/dm9cb684GbPMfEcm6/FxBMJ5QCvXN96Rpf01wcvl0xl/w+zcZ4Y6DWW/4MVJbgatqgx26O7KzQzcty8zThiDd8s0Snh+/yYd3QPLO7Vx7aipn1LNp4Tb1sWW+zHktjbrDJu7UAVm7F1sufSAZ7UUOv79Jo+mfB4j9be9hbHV67R6IkEVsZPnKaF27tUMl63avJC/9amLwkZEjMr/bBBCyML/n1KpM2N4zjjKytX5OvraZpRb86+/Unu2ok/Nro/sU4k+DpnZXvoyZfHaSazQhu3N2glM0PjLz9ZuwB5oHzNKsgYXlHqjYj3m+8t0xr7Tf67G58t07U3z9KT4gUbNJDSZWTZQG1oYobmvGNZu3GNZiaGatvUVt6gMqnu30dLNPfmeRooN951Azt8PsTAfQ9raLxtWAfwWYPwrtdoCx4/cZ6mxHLU7Gu8iQQG67BVbmSCx54sl/3SR95+3F6j5ffkumSuO2pjV1E8Nn4up84P1Fai52W/Ic391lmJhMBjvrxEK7wM+TXx9jgN9Sn1M+zNmY5NJFQ6VLX94D4xRONv8/JYoSVWFqfURdoSSyQwSlu04OvYH6eB81N07caaV895mzkn1c1kBmF1dEGu+MzSxKGTNHl9M+AtgQJlL/QKgT+LJ9vFxVafO1kP2NtOVdPOiQRm6ll2HHn1s9w8rV4ZoV7x86lRypgSD7bH+eUijUhPdx+k4XdWjU9x5z+Zl9cbSA3S/C3/5zavDFLf7+YpFzStjJqQ0L1RYnEcsf1WS+28RMLon0xB+sYSCVbTZPkWXWbbv6r8m7h2QhsZhRK7P8kPSTCfGKDzb855fSVNP6nsAOu3OYRR2O9Uv18fxDr0R+Lu00XuF7miTsfA+lAveuMZ1heeefUUzSn93+QSCYzY+8YOSGV+mmZm64GUnr6zUl+aj4vq/RXvM6bxjHLs3OMj9T7Q2o05Gn/xuPe3AVpIh5x7YXs9fbx/d42WPxPLZorOSn3e4DcrnPuMzrgGQRLs2zP8T7yy8erolDfuVcqPjaFXbthdi8knEhi6cbt0fVTOWb1ceDu4Zl3+ex95yQfBSh3zyt1Q9oHntOFYgzLW5j5xuj5uZ/szJ1yPA+kFu+NNNJ7DiLEtizX2Y0PcbVaZ5IKhiZ9LB8x9Fq+dLp8vIcbEz9WGXN4NJRKqf5f6SRXLZVA7bxXND/Pq2+HyvfBy9Z7D2pvLU3T+RHWb+nYv/jY3juOMs6wcUabj4u3C2XL9qJTF6TG1LiZ47fDzHGtsdH9in0jgPNqhJV+Dpff42Eq5Y2l3MsMrityIhHhsiBbuhlT571d8K/0Hab4hC5lVK3vo1GSlbFxQXxsLfc3RR4m20+oq7GEOGF71aSCRwPnhplPZc3teD3jtmJ+DaX+jr7Pn+blyZzupjm9zEgmcEu1Un7qx9PjINdoKeiqEE2Gf2iWRoHsiQlKtp5HK3+Gm9ojtj/LUXqgnrlkvJBcFXZArPoVg4qFeGj43SbNXM5S5XjH9zhiNPHOwHvRj9l7IWgR3NYutMq0XVG3XRMJvJ2iiFqA/SP1nxrzyStPspVEa/IXyBPaBXprIBjxt7XCcBfZZKUHBlc7ZIs2/xc7Xs0eU+efN+1APEKfoyLMjNPbWPC165z7zwTxNnxukI2ICw5CQsEskxPRbLVWfSBj7IE/5fIji1FYJJRKktzk8U+dMyRiHRMIfBpXPMZ+xWS/E3w6cfE5OSrTfgtoVo1L6S/UJQkufOE3Xvgq7ySv4pkdgWs6RXyPOPl1D/SJHfG+0yqqDxUj9RttEAifuvrEtvjLXB1J0HmcD/6DxjG6KGb8DdPHj3fBzrwnyme2hofR2cPDDtc/oTJQgSEJ9e4426KjxGE+isZKzvBaTGk+p8PbQH5jXeZzO/5knkNzKf/dj+Q2PcHvo4s2Qgm801qBNRvgdYO3A7mOX8UlS8RyPmNqy2GM/FsTaZpWJ0g44lHfS59KBvbUpu2uo2sZY3h/D2xi5jMOsXC/eV3U8LtKWU8zM0O7F3ubGcZwxl5UT/rfLJH11MeFrJ9bY6P7ELZHAKb9+N0VDpsHNE0M0JbwSaHcywytK6Yc1uqZ5EkaSZ7beXaMd2141n27ovXHzsXD5EyrvhW+z+PUKzYwKmXWfPAs5Qyum11TDUBY9CV1k2UD4fjJ5hnJ2JeBVxAYTCRybsudl9vI4XQt61Uhg7/aC8jSSYLlubNRes+v8RILHg43Q64I/ZWdbhlH2yblDklQigVPcomsjcia96vF3lbMcqfwdb2q8vfxoxlwvPXkGfOaj4Fep40AX5IpPXTDRbO9vFy2ChxX9TzE7LKjarokEHuxVnpo3muqjiWXzotRlHY+z8OksDR8SfiPMQydp+kPzPuieNDea6qfJnCEp4pRIsDDot1qqPpFgo1S/EkokaAP+B1LU95tJmv8gTbPnBmnyw+rn7RMJ336oLo5c8eBzozR7dZHmL43Q6FX9VEf+RZdF+yKv25G0DWHdT633b1yRF6oMW2TZQFx9ujj6RQ4Uv7pGp7X7fJwWlLn1E08kcBLoG4eiLfMS7QSM9fjTmQu2ffMNc9+8h09VVB0XhZ370i6t2ZTN6AKtfWM51nLpMzoTLQhSJu6+fRVev95VnuIWtzkyQ2vVKSwsr8VmJRLKFLdp+U1zuRx/capen6KUv0W5V56uvxY8XamIdRtuiDXsbdCCadx+7JQwDVOE8Uns8RyBGNqyRGI/FsTWZpWJ1g44lXfS59IFdg0Z66vXPteundgSCfz4LcbarH1YumN/tLaxveWgbcba5sZxnMmUlTWPd2llUv8Ads/YilIXm3DtMOKJje5P3BMJVR6XqPj9du1VGO7298WA+bZiQvO7G7e3aOdBY79derBDW9I2t2n3YYTBVKlIu3fF7TDv7lKx8SR5vDzS7OedHdqLcsyNwM+nr+wrdSlqmanncuubveTrZath5bj3zZZUhuXzGboAeHdSKu7Sdq0sWPtgWBCtmZQeivtUkdfNYhPPkS7IFZ95yl2Z0DxJL3vwmVGazeoDhUaVRYIPGJ+M1tjOiQT+719mafLX6pP/VQ9S/7nZ4Cl8qkY4zm/vb1LmrRHqD0ooHOqnkbcytBmyLkHhiwxNn+mng7ptVE0docFLi7SuncrJ0+I4YvutltreiYRvP5+lft9nZevTMDkkEjQLJ6vqr5+Q71q91dAa48LfT+V93zbrXCbQp0scdVzB+06t3tdmlmNQ8MLXt2Rjo4g7UJLGbo31y4z9qYibbMc+Y5mk+vYxnteW4Btrx7z/bPu+ci/HBVoYa3gk1/nYxrZq+8eMNZ4TR1um2cc4Yj9hxNlmNYWkz6ULj/Zo5059P5oVkygVld/l8jhcI7+tie05329ibnPjOM5EysoWpX5sf98G11a7xEY7iOiJBAAAAB2FLsiVhIX8Jq1mvalmqubWKR+ysLBRKZHQnguqNuy9dcqp5SVOYZOwhc1Vyoq/fz1Lq5sRyvl+gfK3csJ2qtvKx79GQTN/K3bbPJHwbYFyr4nrmfiNlEhg8rcd9ImzisZEAjN36aj2O8NXQ97YaaEAtDWWT54DAAAAAADAQSIBAAD2CbogVye4/k5/PWhou8gyhG1tuycSuHnKXjppePMjRRNRpjYqW6DVK6PUZ3i7YPAP5kSC/k0Jh6nOWiAAbQ0SCQAAAAAAwAEkEgAAYJ+gC3K1vzmaPFoPGlovsgwhjMdCntZzwlsfcb0tc79Am59m69vNrtJm2FtLuUk6KiURDlDq9w5TnbVAANoaJBIAAAAAAIADSCQAAMA+QRfkancLfxoVpkFp7yePIYRJWqDM79U1WNp/qjMA2hokEgAAAAAAgANIJAAAwD5BF+Rqb9dp9pl60LDdnzyGECaouug6twOmOgOgrUEiAQAAAAAAOIBEAgAA7BN0Qa72NU+Z3wuLvaYGKW2ccx1C2FUW8pS/L/x3fpVmX/C/jTDyfvsuslwVgLYGiQQAAAAAAOAAEgkAALBP0AW52sccTT41TKOXJmnylRHqPyQHDAevYG0ECPeNX8zTyQMHqfeXfdTHPKJbmPmZWVrXfbfNBKCtQSIBAAAAAAA4gEQCAADsE3RBrvYxSxNqoLBsivpey2JKIwj3k+VEgq498EwN0vwtzffaUADaGiQSAAAAAACAA0gkAADAPkEX5GofNYmEQydp8vqm5rMQwq42KJFwaJhmP23vBZZFAWhrHpeo+LBYs/TY+3cAAAAAAAA0IJEAAAD7BF2Qq50s3MpR5nqmbO5WHm8hQLhf3VykkV8oayIc6qeRtzK0Ka6d0AECAAAAAAAAQLeARAIAAOwTdEEuCCFsa+/lqdBhyQNRAAAAAAAAAOgWkEgAAIB9gi7IBSGEMDkBAAAAAAAAoFtAIgEAAPYJuiAXhBDC5AQAAAAAAACAbgGJBAAA2CfoglwQQgiTEwAAAAAAAAC6BSQSAABgn/Ddd99pA10QQgjjl7e5AAAAAAAAANAtIJEAAAD7hB9//FEb7IIQQhi/vM0FAAAAAAAAgG4BiQQAANgn/PTTT9pgF4QQwvjlbS4AAAAAAAAAdAtIJAAAwD7h559/1ga7IIQQxi9vcwEAAAAAAACgW0AiAQAA9hF/+9vftAEvCCGE8cnbWgAAAAAAAADoJpBIAACAfcQ//vEPbdALQghhfPK2FgAAAAAAAAC6CSQSAABgn/H3v/9dG/iCEELYuLyNBQAAAAAAAIBuA4kEAADYZ/z73//GFEcQQpiAvG3lbSwAAAAAAAAAdBtIJAAAwD7kX//6F5IJEEIYo7xN5W0rAAAAAAAAAHQjSCQAAMA+hT81i2mOIISwcXlbijcRAAAAAAAAAN0MEgkAALDP4YuC4u0ECCF0l7edWFgZAAAAAAAAsB9AIgEAAECZn3/+mX766Sf68ccf6bvvvtMGzSCEcD/L20beRvK2kreZAAAAAAAAALBfQCIBAAAAAAAAAAAAAAAAAABGkEgAAAAAAAAAAAAAAAAAAIARJBIAAAAAAAAAAAAAAAAAAGAEiQQAAAAAAAAAAAAAAAAAABhBIgEAAAAAAAAAAAAAAAAAAEaQSAAAAAAAAAAAAAAAAAAAgBEkEgAAAAAAAAAAAAAAAAAAYASJBAAAAAAAAAAAAAAAAAAAGEEiAQAAAAAAAAAAAAAAAAAARpBIAAAAAAAAAAAAAAAAAACAkcQTCT///DP99NNP9OOPP9J3331H3377LYQQQgghhBBCCGFXy2MgPBbCYyI8NgIAaB7/+c9/6J///Gf5+nvw4AH99a9/RVwStsxuIbFEwj/+8Q/629/+pi08CCGEEEIIIYQQwv0kj5HwWAkAIFn+93//l/7nf/5Hex1C2Aq7hdgTCf/+97/p73//u7bQIIQQQgghhBBCCPezPGbCYycAgHgplUq0t7enve4gbKXdQqyJhH/96194CwFCCCGEEEIIIYQwQB474TEUAEA88CQC3kKA7Wq3EFsigWfTkUSAEEIIIYQQQgghDJfHUPBmAgCNgyQCbHe7hdgSCZjOCEIIIYQQQgghhNBeHksBADQGpjOC7W63EEsigS8WpCskCCGEEEIIIYQQQmgWCzADEB2+sLLuuoKwnewWYkkkYEojCCGEEEIIIYQQQnd5TAUA4M5//vMfTGkEO8JuoeFEws8//6wtIAghhBBCCCGEEEIYLo+tAADc+Oc//6m9niBsN7uFhhMJP/30k7aAIIQQQgghhBBCCGG4PLYCAHADMUnYKXYLDScSfvzxR20BQQghhBBCCCGEEMJweWwFAODGgwcPtNcThO1mt9BwIuG7777TFhCEEEIIIYQQQgghDJfHVgAAbvz1r3/VXk8QtpvdQsOJBF3hQAghhBBCCCGEEEJ7AQBu4OFm2Cl2C0gkQAghhBBCCCGEELZYAIAbuusIwna0W0AiAUIIIYQQQgghhLDFAgDc0F1HELaj3QISCRBCCCGEEEIIIYQtFgDghu46grAd7RaQSIAQQgghhBBCCCFssQAAN3TXEYTtaLeARAKEEEIIIYQQQghhiwUAuKG7jiBsR7sFJBIghBBCCCGEEEIIWywAwA3ddQRhO9otIJEAIYQQQgghhBBC2GIBAG7oriMI29FuAYkECCGEEEIIIYQQwhYLAHBDdx1B2I52C0gkQAghhBBCCCGEELZYAIAbuusIwna0W0AiAUIIIYQQQgghhLDFAgDc0F1HELaj3QISCRBCCCGEEEIIIYQtFgDghu46grAd7RaQSIAQQgghhBBCCCFssQAAN3TXEYTtaLeARAKEEEIIIYQQQghhi+0USsUiFYsl779i5PubNHd5znOJtorev8dFie33wyKVHnv/3VUUaStTLTvmzV3v37sb3XUEYTvaLSCRAFtqIZ+n/D3935JxnRYvTdKk52w2r/lM425en6XRl/roSOoAHTjAPUi9v1ukTc1nIWwb7xcoz67Jwn3N39rEcpuRL2j/BmO2A+pDp5jPztbuO5OXFmld8xkIIYTuon2F3Wb7U6Kt2QE6fPgws4dOXd5i/xIjd2a8bXPP0vID799joMS2PeBtu+f5Odp65P2ha9ij5bPVsmPObnn/3t3oriPYxX6+KNz3Zymb13ymTe0WkEiALXKd5l9I1YLsw39Y13wmCbM0Uf7NiievbGo+04D3Vmn2pYO17Us+N49EAmxfb83TYDXxdWiY0rc0n2mpBcpe6PWupxT1vZalgvZzMBbbvj50lptXTnp1lztBWc1nIIQQuov2FXabbc83S3SqGqgue5ZW9ry/xUFiiYQdWhoU9/swnf1znDveDiCRAPeB2Qnhvn+S5r/QfKZN7RaQSIAtsfCnUeHiZ6YmKKf5XPwmmUjYpHQtOaIRiQTYthYoc06ur6nXcprPtdDPZ6lP2L8DBwYpvan5HIzBDqgPHSYCXRBCmIxoX2G32fY8WKazQjC+cxIJSpCdiURCd6C7jmAXi0RCy0EiAbZGdvGnahc/swsSCYXrY9Ix9f5+kTYLwt+/zOMJati2Zi/ISbC2Cxx/MU8nhf1DIiFZ274+dJgIdEEIYTKifYXdZvtToq3Lp6inHKw+Tqff2w6d2qj0wzatZKbo/HsWge1Epzaao1PHKts+PnKNtjthaqPHJdq9u0JLb56na195/2YEiQS4D0QioeUgkdAs7+dp9fo8TZ4Zo8VuDX59uUqZK5M0wgPour9LrlO6OgVQqo9G3+/0qY3ytHimvt0DvZNNSoxAGJO30jR8qFJ/U0+N0mIzprJxahcLlH2tz0vWHaSTb+WQmHO08EWO0u+M0jArO93fJVtRH7rYzg10FWgzl6bZc8M0/aHu7xBC2FqRSIDdZsfwqEjhay3v0cpYj1tgO8FEQpnHpWQWiU6CvRU67yU+uDN3vH83gkQC3AcikdBykEhohh9O0sEOrei25i4J6wI4TOHDF05t7kKeSSUS5O32zTQrMQJhnPLFdZu0kHHUdvFenvLCmz7Qxk1KvyS8YXAhq/mMzibWhy63IwNdm2karq6TwZzIaj4DIYQtFomEDpU/TJLNUOZ6hnJfoK8h2l1ECGwnnUjoJJRppJBI0KO7jmAXi0RCy0EioRl2cEW3NXuhenzMtl4LoDmJhHjXXoCwC90H7WL7uEnzz9XbJ/tEAozLjgx0KdOJIZEAIWxH908igSf38+6248MX99i4qbd+fzlwIEV9l/CmadXuAomEhkAiwQrddQS7WCQSWg4SCc0QiYQ2EokECNtCJBKaKBIJrRaJBAghTMZ9k0jwrRVlZzuOSXJvHNXs6wgt5vWf3292F0gkNAQSCVboriPYxSKR0HKQSGiGSCS0kUgkQNgWIpHQRJFIaLVIJEAIYTIikRBsS8YkhTyt51Ypr/sbM/eaMN1iTZu+YIHyt3K0+qXub91jd5FAIuHRHu3c2aCN2xW3vtmj0mPvb82Ar7Hw/Xbt9zdub9NuUmsuxJ1ISGLflfOxcXeXik1exFp3HcEuFomEltMdiYRyZ6Uyx2LZ3HoMr3GyjsrmKmWr2+RmV2kzynzRMVX0grI/uVsxri9wb7M2TyU3++mm07abl0ho9Ly0eSLhnlKXmbGe51r5ZWl1k21X+5kIsmtw89NsgvvdqJWBR33/crTe6NzvyjVTbnfuaT7nrOM50uxHU8vdV2ct97sFHYBCfp1ytf102NcoJnUt31frMjO0DWxBIiHxtozJykJqd3g5RL0Go9ZjS0MDXUn0Yxptozo5kaCWZ9T+m2hibT4zzrocRc09PNrxNdpHs1Apq+yn4ddpIe77f9WEzpv/XhXjPidu3P0tdXu8bZa3FzWR4CvnuOtq3LZ5IqHw5SplrkzSyLNHKFX+7YBzkZukXmU/Uy+k9eNH1j6tXp+nyTP9dMRbt6fbE9s2lNam6sHiw0/TwtfeH4xs08Kv6gHmp9Pb3r+bKNLNV02fDwlWS4kACwO/LyQS9jZoYfRJ6hG/W/XYk3T2vS0qhiQU9m6cFb43Q/q0huH4Hhdp+8YUDT0h/E3w+MgCbVT3tQG2ZvXbNyknF0znpkQ7Qfv+4hStfO991JLi1ys0Yzofh3voydEZWvm66H06WXTXUbOMbXzZhLGTvK/s/hzWZ+HtbwMxwiDVcisfq+ZzWhuKI+j6FfGN+cLsFjoikWDsIH6Zpenf9HmdFdUU9f1mmrKuTyxsZmn+wmCto6Iz9YtBmriSpU3jRaQEbUINqvzs4r06QYO/0D25wUwdocELaVoNexXUdLFtZmjy19UOn2Kqj0avGJ4mce3M+pILboH3fC5d7kDWF2f1e/CZUZr/JK/9ft34EglyvQwz+ByvfzBNI88IC1b7PEj9Z6Zp8fOw42MaznX+w2k6eUjcZuMd8fwnaZow1Z+yKTry63lar36nkKFR8e9OSad1mn2m/t3U7zNCg28KlLLr58oo9SvHXfXgc5OU2axuw87gY+bHO0HpsHoYwznKfzJPo8Y6c5BOXsp4bZRlnXe8IW9et6izFzJC+9FouxgxGF7YpMxbI8Y6UJa3o29kjU/OWct/651Rc3vN5b9VOzf2Fr7I0HRIG8jvTZNZr+5J59NCtTwd60PFmNsyU929z8r5kuk+ze79v5sPvyd6utfjaEbrx7DfPmd/LFUbaaOkhwIsLLdPSrt+9I2cdtui0rQWRycpp/mMaP79EbvPsz5N0HVy8JkRmr7udt+Ppc1vQl2OIu9bBd/DK2WW/lz//Zqx9J2rGtr6oLI6dJIml/3nYP2DCd89tarV/d/UDt5bpfSFk+Z69hyrE586BqTZgHox7F51qJ9G3lqk9dA6Ee1+aReQb1J/i5/vgPJIPTVMsx9WzrlTIiFku2VZOU9ct7lHNdm2TiTIbVzF4HPB29bJMyep75cnWb0294t09yUkEhjFmzQuBG5P/XHH+4OBb5bolPD5w4NLFPiN0hpN1T7fYxms9kggkVC6u0BDx4TvGBx4/SbbOzOREwmPd+nm6wPCdw0eY/v7g7eZiMSeSLDe9yG69rXN2wkl2k4PGRIIqsfp/J93ve8lh+46StTYxpdNigMZ4wZeX1NNKORzNGsanwTFCGua+yH55WkafsoU2+yj4bcsxuRRxqlh9/9yH8t0L5LjUHa/qXynd4JyBSQSaugLLV51HcQCqzx9AQOWmql+mszZdOYLtPrOcGCQRjX11Cgt3tJtS7lwQjVUxHs5mnw2ICAlemiY0tp98dRcbIXcJPVblGEvu/B9GbqmJRLytPi7oIZV9SAN/2Fds52qtr8bbiyJhC8zNGZqSLUepJNvhSxGpjvX7N/UJ3+40TviBcq90R8YfKgrDiQKlPm9eLw2jbDn57PUV/teStl33c2KDcp/21v/N5OpQZoPunZquhxzSD1s6BzlKfuaKfAom3qKlT1f0E74N2Od1+yT9nO25cqVrvtG20Vzh8RkfnnCqo0r2+ibVJ9M292TPCvnRrMdn/x829Y74fxK59NCtTyt64NnEm2Zrr22vS+yzlpw+Uatx9FsVj+m0TYqUiKB36fPCP/+y9l68lgr61j/Uvj8gT6aDQxUs/vGufrnU4Zrf/39EW0b6pcNml7T9Gt8xtjmJ1qXI3hvleZt6z/T3FeIs+9cVdPWW5VVigavVM9BnvU1Yrj/69rBW2kaDgoc1OylkfeD6kTd/J/GnO4fPHEyHdgmuN8vudETCTH3t24t0oi0EK/JynW3bptIsN5uY+ODxNSOvQKOt6nKbVyc+4ZEgokirYwJAdvRlcAA+s4fTwnBXW7I2gN3ZuqB4mNTtCHFl5ucSNhYprNeEqGn7yxNXV6ildtrtPzeDI2/eFz4LLeHxj82PwUfLZGwRluz1UD8cRqamKFrN9Zo46MlmnvzLD2pJjheXKKdBqZaijeR4LjvJxZoO3DfS8L2PJ8YovHLy7RWntpohZZ82w0+J3Ggu46SMrbxZZPiQFb9Y6GvWfh0lgYtjk8bI6yp6ysU7GMYz05SLqjv6zpOdbj/G8foypt0qXPiQ61++UNQ9WPtpYkPK/22bqEzEwm35uuV+1AvDZ+bpNmrGcpcnaXJc5qnlUI7rqxSX1A7wCk68uwIjV2apfT1DC1emXbYtnLhhKqp/Dz4p1R2/lTY5JXFyis47FhH1afIUiO0aHoDQ73YlutlyJ8SGy0f5yLNvzWmyYimaPRPyoClaYkEuSxTv+inkVe8820qhwP9AUEJ298Nt+FEgliPq3r1ebp8ntM0e0l3PkIabvVcf86O+ajwffYbvd4gOGpHfP3KoFzmPIN7aZ4WvVfE0u9M0ljtFWRlIMEa4aPCd/vfsRto5y4FPcGq3qwWhWuaZ/HHKmVqaiOeCQt8adoI6ZjZufJtN0Uj7xueHIh8jgLaqrf4vviv4dS5URoRPm+s81Y3ZP/vl9uPd9KV67H8+5M0+lJvJbDUwkTC+h80wS1+zqrtxwfzNH1plIZ7vbJqNFgsld9B6n1plCbL58Qrl0v+JyDCOiA8OJN+yX/983uBfG8artWX2vmV9sdCtTyt6oNnUm2Z2l7PZWn+Ba/DzZ/y8e79vAx4e6Oeb3P5NlKPo9mSfkyENipaIoF1lq8OC/8+SOmgJ4+lpHDF4Hsxqwe1/U7R2HV/ANV3TyrXj8o1Yrr+egPfnIi5zU+sLkeQ9y99A1f+ZkW9zZLv4aa+QsD9KFLfuara1qdp8Uxlf8vXaXkfeZuie/ur0v/LvVHfr4PPjUa//6vt4Kes7Kp9c3bean0Lfj95RfeUGxs4ZoOTgL66yzzYO8z65dM0/4HXJjhv2+1+WTVaIiHm/lbA/UTfRvbSyBmL/faNqyp1vrxNfk0rfYJGxgeJiURCTSQSKshB8SlaMz5MrgSXPYOCu9vpp+uffXON5E2HJBIkXD7rISUSnqany1MyDdDFj/RPtu/+91n56fgXl8j0DHykRMKJARpg/9vz8gJt6Ypsb42mTgifP9xDU7cbXHegSqNrJPyKlR/7X+O+FzdoxmHfix+PS2U98PoK7eoSD8UtWni5p77dY6x+Jrhugu46SsLYxpfNigO9Xw1+V+7PgX1NPtvDl4s0Ut0v/nbAK44xwpr+fojY36n0cyp9Rd7n9Mfz2P68IMxqodrQOFW+/y/yKfnUY+vVvf1coNxrYr+3lyZz6mc872VoVPjN3tfqCaBuoQMTCb3UW+4Ipqj/NcOrJ/fXKa0+GRMQCNj8g9KJ7+WvcRsuCv5KjPp0aFin2KWil+VP94mDI9ZJvqoPtuY/lN8qMA42pX04ysqQb9+03QKtzihlEnKMUifPKugidzjNHfZKI8SfYJvPmV/n4k9zSRlCadobUdvfddVxu4Wcb0DTz199M7zWy19Hk7OoAQ23Ut8mLlSun97fzlNOTDQVNmkzymJleXaDqW3fa+RNUxXcz1OO3QxXpX9XXvMKDeJzczQpBNr9yQflZtXL2gn2v+Vstm4KAP4EgFKeuuBUVTmjzMsyrT/mvPLUZGqUMrqMdsRzVPjTqK+tMk3npbYNVY1106adUpJAvCNjfPWQv/L5B9ZG6/7GdW4X7QMjhQ+VtztCXsHk0wZNXjDMzWtr+Xi8KaVMc9vfW6XZavCwbFDSU+2seO2gcQqVAm1en6SJq7rza192NW3PT5JtmdKuHmXXNa//puvP/wSNoXzjrMeWJt2Pib2N4ipBq8DAjfJZ8zlVy8LzzKL5HEjni+2ven2pTwiZ2n1fmZqvv/jLM6G67OwmpaU2iAfaA6acKd/DR2n6Q//fkus7K+1VKlUpK+11mvclM46+MEj95f9v6OPm2blQ2iBj3ZbawWrfmZ8305RTrLzUt1iOTlDWcE/w36v669PT+eRTBylPFRrrW4Q2nxkpkRBrf2td3rZrG1lWv9/SdGqsbkxopsKqyvsE6etxjQ9iNK5Ewr085fOy4pzXhS+y5WT65CXPd9KU+0J/zgq1bSzSmG/fxmhR+I28uP4EX+9J+pvy90L93xd/r273AI19IH6P779ue8yQtYbq+183tqRtA1rz/RIN1YK66vRDAuI0SGfP1gPTvgRBFTkY7U84KMHqRBMJ3B46eyNoepwi3XxVCFofPm2cXihSIoF7gn02KBB+d6EcsK9+vsfmOG1oNJHADdv3rxfKiZLa59/e8P6g8GiNpoQ3DXpGl/VJhCoPWb0TPj+USW6KI911FLexjS+bFgdi/SfelzQ9vOELsJ+kQa+PaLqnr88pfT/j2ETfV+D9nAnT/fVW2vfWQENxi7Ksny5uk/ezvGkRVdevyn2s/hlNH1J9KEF7/MoY3pvSqPr3bqEDEwncFA3O6QPrdVlnVBosHdVnjJRskd0r5P6nsIavmjuk9hW9ohwsFF/V1isPeA2DTWkfbLabp/RL4ueD9zvJRELuT2FzsHELtPhbYR9S7ILVfs72d1112+76TH/tszbnuKza2Jvmifada3YzCMrouiptP2xKCr3yNW0RIGG/Wa/jw5T2JUCUmxU37FpWgomm6TLUNiK0LMVMPlP7xkWkc6TeCMOeUGZtCfsdqcPDbOSGLJ83TUDPRYvfk7UNjGg6DFbTwjToJxlatJn/+dNp6WnswT8YzocuOBp6bzIZIahkeX4SbcuUdpUbdp3IT8br63us9dhSfz+G7Vvo21jR+jGxtFFcl0SCkiA2tqflByWqnztJJ2v10nwepLLzJRz8848G9+Hk9kH70EEi5ZlMXXbVnyBZDLnvGEy07+y/nweXFTun4ht9ntoBYFXl/m9c10Nzrw5MPJa1PU6l7lrc07nqGwxHL+n2PUKbz5TbKVOAOrn+lq9+ss8FB3VZWb8iJgi4uv1W9jnON3yaaUyJBOMT/vxhB81bkBVT1PeKul6Qpi4EKuyr5toSx4+6e2aQE1nlevLUXx9VNW2HxZo9zdCeHVoarAdqTQsoiwszj398k+aqwd1jM7SlfZpcXH9hnG76nmRvciLBYqogefHpwzRjiIVHSyTYvGEgn4vDp5eNb0U40XAige27+VUVD7t9380MCds9TysPvT8EsDUrJHjOLrO9SwbddRSv8Y0vmxsHCn4zUu1rlg16yMgXIxyhRe2DFZr7g00/J9Jx2o5Tw98SFd9oPZAa045NCstjQp9Gk9T5fNZ7oIXLftOb0qhqt9CZiQSrJ5iZ0knUd1zX3xEr19HQylWzwAaFYucjaJ8sK3pFpSP0UtoiiM72RbjgtINNtVGxKEOe0BC/M7as/xw3uUSCvXwAUtsHYznH/7sVHbZbyNCY2EBalVdF+VowPNXlu4HoAu/RlfeBlbPFwNfnl2kaFvaxL2jAzwaK0roK2mtCvVkFv2FQkV1r4jzd/6UPVMhthF1ZZi8I+6s7vxHOUeH6mDTADkxeCkpTQjGNddOinZIHn2PuT8GJOrWLXOUcmwIRH4iBCNY5MwXqW6YycNUeR54WfyvUIdbxSoeWT5B2ZSdpc36Sbst8wVeLpKO6oPsr/mONtR5b2rx+TExtFNcpkcA76331bZo6/uL5ObNIi69V98P0VLi8/oI6dZDcLhoSLYrSuUj5g3DJlGcyddnNVZoWB8G98hNSLibbd1bv5+HnVap73NBgoNIOv2B4I029VwcOrgXVRIumTqj3dPv+qFI+2oFuhDafKbdTpgC1en7i6m8p4x/bgK6SyNPvt3L9NXwttcgkEwnLauJar5ygU+tCmEkmEgwBsaB6pCS4uMGJh+bpgjQFkXYB5RJtTFeDuXxdhBKtvel9/vDTtPC19zEBKSivDf42N5Fw9oZF+HlvRQq4m74TKZFgSrgobF0W34owbduRRhMJse37Li29WN9uz/SG4W0WGTnBEzT9VmPorqM4jW18yfp2TY0DhcUS1b4mMyzGIMfcWP9d89aq7v4Q+ICHoJpo0Y4PIoxTrdp36T5rGpvwtduE+2WveJ+R3/wVpzSq2i10ZCLBPAetqlKBfQsAKh1b24G9pzxwCZgT2KaiV5WCBjadc668EKH2SRulUbEasGymadDyO+2QSLAr5wR+t6z9duUEje059lQa+xRrnHyfUc61eZqniCrbt70pyCrJgaDFOaWbgKm8lGtdExzSmasFsbi678gDW9uylM+x5knbCOdIClQZMuRalfnIjXXT4vpROzBB05eEanW9iirn2BSAFxd9tQ1ENFWL41CmD2t8YGtTdooW5yfxtkwN/ljdW3gHLvg7sdZjS6P3Y5R+iq4fk0QbxXVMJMhBGf3bamLwlLdF4n5onwqX6olaD5X7iENypt4mqvuZVHkmU5edVIJmtslov0n3nZX2yqYdV+6pxjcMair9ZsODBO7brSvds311Qvl9l3s6U217/YP4CG0+U26nTP0oZdtx9beU9sZ2/SxfWWr3W91ny4RQu6lNJKjTB6n672+6REJvr/wWjVGprirlGqpwbpRrq6zQxqn3zDDL9yclaFTRnIiUp7vixjWFXOM6IU2po1lA+fEWzVTfQPCSAnye+2pw99Qf/akHMaisn46mmYmEHpr7yvv3QNhx1r4TcyLh1ZtkXk2ijt22HWk0kRCyCHeV0H2X3lI5bPGWg4d0LkMW+G4A3XUUn/GNLxMfOylta/h4Q23HTW8YCCqxBf3DxhG2W1W512kfOLUZp0oPbNi273If1/iwq/IQQzW+ws9v7TcND+x0Cx2YSGAVxeEJaLnjqjx5qARrgp+K1vihON1KwCDboqJXlTN8hsG9xtBAvrQPdk/tuQTHW5JI4PNnbq5S1lukZfKMmL00lXMMv6vVfrtyx9X+HFe0CCw430Ac9XXUU9T3O9N8wQFKQQ1znZSuCeONW7lZBc23LRg6aFbaCOuAY9g173yOlMCN02v5WWneWmPdtGmnlKeja2sCGOZ0DNTm9ySVc6wLjCgdLJegT5LyOXjXc9UFuMZoMOSNBLmTadteB2lRdqoW5yfxtkxpV23PZ+j9KM56bKmvHxNa3+u69GNia6O4rokE5SlvXVtTD656vynuvy6hLPazfAFr+fes+3BBx5VYeSZUlx2UA/gOAzrVxPvOEe7nyqDW5rzJwVRDMFw6r8Fv5qryNSTq32V1Qhq7KG9EuE61E/qgT4Q2nxkpkRBTf0u+77lNm7k+F77f8ls0zEMnafK6oT/UrmoTCWH6y0Ou+4K8TD5YpU2egLiVpVntGhTi9VWgzQ+9xaqvT0tvGlccpuny36oKU9Uq11ZZoY0rfJGrfW/6N8rnmMP/R9xuhla9N8fkBF5FfRul9Ku5jknRJHVCTBQwfesZfF1PNNSSBmJw2vfGgTjNzSla+sb7Z4lmJhJsg88JJhJs9pnRlomEuPZdqEfRtU0KuaO7jmIzxvFlc+NANmNIJRkf9HBnVeVepI8tKH0F0wMbWnPSbCvatwgtxjFSWdscV1n7/pM0HSN/QOFL1tev9e38UxpV7RY6MJFg6tjqDRy8K09nuQwQylpdREyLil7V/3REBHXrAzjsQ1374HjyiQTWWc2lafaVETr5y17/avk+Tcfo+ru22m5XyWg7NaoVQwe/0rk2vW7WmOocvRUPUv+ZaVr81DZxIQ+k9TdleR4+c8AioUGz5rVndzXnwPkcyckAt8CNZd20aiP8cz+XTR2hwQvzlDUsxqfVuU2yOMe35DbZOggYp1+uUubKNI2+1Ed9v/APaH1qjkMOirh2MnVGuD5Cz08T2rKI7XX4/SjGemxps/ox0TS0QUEBd4NSEMcXYBTa/FqHXqyb/nomBr997Z4S0I6q9Hp6YuWZVF22N/uKsC3rAZXGxPvOEdqrSHVV+A3TNel8nxKUvhucsDoZuu6bqlyf/GWUUJ+obDLblhNdblPOWe23ukCiZ+oXgzRxJUubDd9nm6BSz+30l4dc9z21c1fLb2hV1ffXlTpZ1lSHmMr1UdbQxun213iN69pwXXunJB+50d/Sil83xKmLmMpCuTt/POX9TUwKiMkCJVAvBq5/tUD6VReQSNDR1YkEZbqpqIbvfzR011Fsxja+bHYcyK7f4tzXtIqBRusrVFS+q9sn13FqVE1TX5bliZ36uOfgofoaQ7opjap2C/s7kRDUybfR6iJiOlzQ2s6ds/E0Ki4DX+cGyGHb+Q+nadAmICdpOkb733XTdrsWDWOISdxAorh+dZT6fK8QV0w9xZ9CCi9b6Qkx3dsG0loKQa+kJTRoVtqIqPraFtdzZNvWaLWsm9b7lKfcWyeNybyDz01Q+hOLwZhzPbU4x8r5cm7TG/H+OqXP9VskORU1xxF6jTsb4foIPT9NaMsittd296OY6rGlzerHRFV7rUQIzsqvESvBQCFwIyYFxACifI7FOqZ5qipSUM2v9JuJlWeSddnGxq/Xmo22s6H3swjtVYS6atXOhraDAQaVU0P3dK5cn/xlFKEMmXbtVDLbbuS+Z92+5nM0/ZxpMeGDdPJC2v3t2mYaqc0LK+uKpikU5bL11J5zpU6WDTgXurbW0C7p9td8jeuSH/7xg5y44sa7nlyjuiLNQy8F/4V57ZWkQD3BIL/FIE579PS7+jSCW7AaiYSGQCLBCt11FJuN9ntqNt4XC71XRui3SNu02SerPky0vkJFi3IKPU5lG1ENKw8lyVQ2ZA2ybgGJhNrfkhgMeTpc0LrOkrvxNCouA1/nBshy25sfjFCv8Dlu6hd9dPLMGE2+NU+L1zOUu+XNAWp1jNEG8+Habrc9byCRza/T4qVBOmJIKBx8bpKyQR1zKVHgDxRJiYbAxYKi3axC2xaljYiqr21xPUcNBR0s66brPm1madYYOPemuwqag9i5nlqcY+V8Re/oOVrI0fSzarLzIPX+cphGL03S7NUMZbKV6QIK98OPI/QadzbC9RF6fprQlkVsr53uR43WY0ub1Y+JqvZaUdodq+tJev1bbtPr7bnS1otPhopvMYhPbesSzZGCan6lepVYeTahLgfa+PVas9F2NvR+FqG9ilBXrdrZ0HYwwKByauiezpXrk7+MIpQh066dSmbbjdz3XNvXzewsjT5jSCik+mj0yqrbVFPNMlKbF1bWFY1vFunaRO05V+pk2YBzoduuoV3S7W/QNa5bdFm+xvzJhtjXk2tQZ6T564U3D4QgtC8pIE5V8+ZabeHcjber2+kJCPoikaCjqxMJX81RT+3vySUEoqK7jmKz0X5PzSaMnSL0W6Rt2uyTVR8mWl+hokU5hR6nso2ohpVHgd37xKkqve8EvWnSLXR9IiFwbmHbNQ5MKheRcfV2hws6fPHXiEZoVFwGvs4NkM22lUVMDvSO0Hwu4AlRq2O0PyY3bbfb+OKJUlnHNo1Vg97P0+oH0zT8lObNkV5Wj42BOPm1M/mJKLGjH7YYUTID24bbCJOu56ihoINl3YxabwqblL0yQScP1X+jauqFgBup8+9ZnGNpmzGerxBzb4jT5KSo/7VMwDQJ4ccR2kl0NsL1EXp+mtCWRWyv3e9HzKj12NK27ccEqbQ7dtuW2/T6mwdCHfQlBcRp7oSpvJbHattJ6eps6DzxEUysPJtYl7UqbUAj20q87xyhvYpQV63a2aj3RWbgGgkN1125PvkXXIxQhky7diqZbTdy34vavha+yNL8Bd2baSkavOI63VQTVOp5Rbey4splXdF4zSj9qrLacy7XyYoB+6bbrqFdctpfrm8tN6a4bd86SY4LnjZBd4q0MlYP8laD6PW3CzRJAXFthWMztPWY/+M2Lfyqup0pMq+ni0SCjq5OJCj74VuLo8XorqPYjG182Z5xIGmbNvtkFZeI1leoGMcaCY2XdbiGqXKZQVNWdgsdmEhwmTdTqUDqHInqReA6R6k0mAqY59zhgpaPtYHF8FQjNCouA1/nBshi23JZKIMwnVbHGG0wH27EsnKcB9ZXp3XztkU61/HJn/QaUeahNb0yzZWmwmA3xFp5iE+piv+uNaFBs9JGxLZwtes5UhZ58gcNArS62TMbrjd5Wv9ggvqVwZtxzlnn37M4x4226ZFk175wzEdZZyf4qbbw43Bu+0KNcH1YnJ/E27KI7bX7/UjUsR5b2qx+TKyL6yvbth04SU+DVstfeLtAlxSor63A+lLe74hrRunno5XrRyOL39VMrDxbUZdlG7teBRttZ0P7zhHaqwh1VS4PQx9DbQcd2mI5AaiudSPXB+0gOUglERFLMoZpVSYRtx3W35LXBhqk9Kb89yDt9jtA/nbta/1Sgqzdpropq9TzqMcrl1dF4zUjXQOe2nOu1OmyAfum266hjXPaX8/cJXXNwfr5lOsiU/fGW4uNghQIfvUmFalEa296/11LFIgIfz/8NC18zf7pmyU6Vd2G8JaCHyQSdHR1IoH9y5ywqHfP9EZA/Wg+uusoNhvt9wjK7Vl7xIGkfbLpa6rloe3TKn0Fl36O0sfRrg3pOk5NoJ0vsH2ozZySGqH5uVGhH2HuM3YLHZhI6AuYJ11RWczMP3iVF3sNnjrFrzy/YsCCmC4XtDLAiu0JiQiNisvA17kBCt22soK8xTb5yum1zxuPMdpgPlz77cr7abOavqASUI7asCbuvSyNiddWYOMtXof6IFJQIqJiMgNbNSMe26vPzudonWZ/Wd8Pl4Uy5foWUDfjqjfqXIG+BVc9nX/P5hyz61AMADu26ZFUFuwLD2Ap9x3dcbCyEQMajS8AGOH6sDg/ibdlEdtr9/uRRtt6bGmS/ZhE2ihuhOBsWel7lQciCn8a9f673saL1v9eTQiIbZ6pf6UMqJ5pYAHhmkmVZwvrsqdcBx2vV8mk+84R2qsIdVUqW1PAU2oHXRZYVMrId+6URQAdB7ji9aJvT5QytGq/lO8Yg8ARzg8zrL8lH1MDZR0UvA5RTmbEnJiNQ6WeV3Q/XrnuVzReM8o1UFZ7zuU2rmLAvum2a2jjnPa3qu+tg+r5VOt5TEnomI3E90s0VAsET9Haww2aqgZ+DUkBcT2EU3/ckYLJwU+cI5Ggo7sTCcqi3sfG6eZD709tgO46is/4xpftGAdy7mtGSSREjl3oxw02xym/GRq01mYElVhXpQz4uER4iISVpe6Yu4UOTCTYBBUrrs8I86sbgvLyEwu9Dhez3HENHGy6XNCsgRBfx0w1GLyoGaFRcRn4ug92w7atND6hWcw8pV8SPm88xmiD+XAdtiutC+B2juV5Pw0NYqRzHb9iIiBsoCOuhVC5lsTry6bhT2ZgW05o/V64IaRGaDGOJ9Qi3eTFpxttOx7+eWCNdTO2eqMESEztgfPv2Zxj5Xw5tekRVY8j7InV3CQdrX2eqTsO5T5woLfRpygiXB825yfptixie+1+P9JpWY8tTa4fk1AbxY2aSFDandE/5YV9NCQFxIQJH2yIvx1Qr6R1dGK53pMqz1bWZU8lsNZI/zLZvnOE9qpJiQTb4AEPiovJ4P53/IN9uQ1MOQStlf6uNoGmPIwT+lYn0xekNn0nof6WkjSNWtZh/c1AlX2Ib4wQk75zxHU/XrnuV+y6RIJaT7m8zVP6LbEHl2IyGju0NFgNBD9NC5n6GghTpjmKxCD16BIt1d5QOE8rgUHiBhIJ5bclQkAioY7zlEIJ7vtdYV0NZs+ba1T0vemip/hgL9E3GHTXUXzGOL5swziQc19TuRfp75VqGxwxdpEa048bbI5T6ff2xpY0LlD2FaEfLPbDlN/Uvb3SLXRkIoFfvBPZkCdVbs3ToE0gRn1iIXA+96rqfFghjYlU0cMvInmAlqLRD+wHF5tfGsolQqPiMvCVGiCrJ6vCtu32tFZheUwOzhmPMdpgPlyX7ao3I8u5WJU6bbzxRDrXDt7X/JtG6bV+7fznguJ1yAe8YrDVajCZ0MCWqwR+U+ccbvibeX2CMco5UgPQFm3V+pVBZYAdUDdt9snq3NtMWcN0bBetz3GkNr0BlfMS/PbAun9gazgOOYDMOj/sc9GfjFbKzqbTalVHE27LIrbXoR3iOOuxpYn2Y5Joo7jKQMHl6VzxqfOjb8zWg8fnTA9diHV0kGbfqT+dHHhNqUGhZ6Zp1fIe9e3mpr6cEinPhOqykzy4HOF61Zlo3znC/bxZiQSbMrvHzrU4vaMpGaUmjFODVlMnyfd1cwJCfro+LFGh1g2uoUyinB9meH9LfSCI7fPVkOtELWvjtpk27ULolFEttuMSCbZv63s6JBJs3liRg27cMUpfld/SbbxdTcaobKefrgV5h14c8v7/ON00xp6F5MOvztLZ6v8/u0z6MHwVl2C1OIUS9ywt/+D9qYoajEYioU5pjaZq22Syc7Orlpf030nu+x6tjApvJTAHXl+m7aDcxsNtWpk9TcdD61Rj6K6jWI1tfNl+cSDnvmakRAIzQuzCGPy3Ok61X9FP05/qPqfx/iZtGh4kkh9g8Pdl5bUT2b4pfbtuoUMTCcxUP01+qO8U5z+ZV+ZoTwV2OOSTzS7Mp8Zo0TQ3J6tUGWUezdAAD2t4xKkvQufQ/oJ1ZMXBBaugI1dWAwey+VyaJp472FiQ0Kf9wFd+Vf0ojS2HdfDCty1vkzWyM6vacsv/aYz6pPLimo7R/pjcdNyuupD0gYM0/I75HPvqdNCAM9K5tneTNfB9v5unXNBTmurNLnR6CLGhP0onn6ufe7tpXZIa2HKV19SYvb+dp9Wg9Uu+zFGaL+BnuhlHOkc8uSbvR+qFWcN+5Gl1xrsRHz0qBcUaaSOyF1gbcyloIWF2c2Xbqc0XyNQ9iVnWtV20PseahY/4Qu2fmOtRPjdPo7+LGChWXjM90DtGGd21cW+VZl86KO8X13QcmgBJYL27n6fclVEa1QY+eJBI3BY7v2EBK9s6mmRbFrG9DusQx1qPLU22H5NAG8VV6zb7rPXUQWIw/pn+2uArKJhZv+eL94Cw9rFAudeUPtyzE5QJml+9wPpxbw2zfkMT2/yE6rKzanKK1avy4vCmICsvq0snaVITZEyu79zOiQQu65NfNbQHmxmaeFauO/3aadsq8tf3xTI5cGiYZo33KnZfvzIitUuBC8GrQQ/W1s5+qmtD8pR9ra+8H6mUuO/m6yOx/hZrN8Tj42U99oHhWtlcpLGnKvt7lPVzgrfNrr9DrB5f3wzoZ6h9hzZ8Ul2bSGDXXT5P+RDF49YF5htPJCiLY5YNuG/ptmto4+T1RiqmjElpQTVZx+4nJ5+Tt9X41JHJGBnlifGyYyuBbwCIyYeqfJqjYNyC1eIUSmWfGKLxt5do5fYKLb09TqcuK99HIkGgSDdfFfaFefzFcZrJrNDGR0s08+opmpOmO0p43x+s0PknhO1zjz1JQxMztPTRBm3c5q7R8nszNP7yk9RT/UynJxLiHF+2WRyoaYkEZurZScqZYhdKH+dAapQypsSD5XEWPpTHc3zsNcH6ArrPVizQ5vVpGmb9C+19UTl32viFOsW3Mn7qFjowkTBCE8JFfPCZERp7J02Z6xlKvzNJo78+InfKmeFPcq7TvDJo5J2fI8+ybb81T4ts25mrszR5bph6D4mfCenE11Tn72Tb/vUoTV9ZpMUr0zT63LCv8m9eHaaDwu+Uf+sX/TTyyiyl+f5wP5in6VdGqP8X9X1vJEjo12HgqzzBdyB1hAbPTdP8B4s0/9YonXxJbZQstq3pMB98rlJu/PgXr0zSyDPVwFwvTb4xJnzWdIzRBvPhum9XDVSVPdRLw+cmafYqP8e87MZo5Fm1Toc8yRrpXNtbvx6Va6RaJ88N0hHx5mj5lJ206HLtu4bX2XwmmUhgfpGmYeXa53W8/8yYd64M58t0M456jnxBIKa0H2ma5W1CbV95XVm0q5sW+1TvaByk3pdGadJre8uyNnLsTL/cbgU+eeDaLrqcY12b7t0vLnltqNp+Rg7S8Y6lGMRgpvpouNZWs3MiXBOpM5M0aXscuvPNyp6f72rZ87Li5V7dvun8qmtlHDhUvZ/wOjNMfa8p++FQRxNryyK212Ed4njrsZ2J92PibqPKKm8GMmv7ysvpN33m4JPv+uaGLF6q9iO4NnOqFthveQHFupVzW+0v1Mr2pV7h3DaxzU+oLkdRe72W+2yTtfJSy0p/npPqO7drIuEkjV2oPymX+sUgjXrHWW2Hff320DGCJjDBPNg7TKOme1XV0HZJ95ZB5f5ROc9Kf4FtLz1j0ydKsr8VUB5CWYt1k5dxVnr7Qrdt4fqT7k0V0++w67g2nqjY2FuACalNJNgo38Plul+x8USC8hZfVd4fusTOHWsLRn8tvFWn266hjZPnua6aor7fTLJxZqWPNelbtL2if9Fl0YA3JlpsZB5v0YywIC7XFFCvcWemHuwte4qWvvH+ZsQxWP14mxZOCJ9XVb+PRILM1ws0UNuuX3ndhCbs+w836WLQ+dTY87rFlFYNoLuO4je+8WU7xYGc+5pREgm/nRAekKv0RSrHydrwS6M0qPZxYjvOArsPVB6WELcv9ivKfQFNf9V/X1QeNApIdKgPiohTHHULHZhI4B1E/UXsl3UyXssGPslfN0+ZV/yVzCzb9u/StG75Cr3vqSNJfeVfZ9/xNTCBpmjENA1ShEbFbeDrf1pa0tco2W1bNzWL314aeZ9dnFbHGG0wH2607RY+nfUHK4I8dJKmDU+w1ox0ru2Vr8cQ+RO3uaBAoSgrQyVoajuPeLIDW89bi8oTwuGmfhvfa4dVeZ3xB5d1eteFbd202Cfd4NNo7wgthiSQ3NpFx3N8f53Sv/UHJIw2EqTTTq/gt/wUxj3H47iVdqp35rYnR5NB21H3w7GOJtKWRWxXwzrEcddjG5vSj4mzjarqe0JYNihgK6/rwgy9xvz3AP0i3BrvsfqtPAkeau80req2VTXW8kymLkc1/+Ek9VvdRyqaz3MSfecI9/MmJRLmv9AHunUefGnecoxQoNV3/A8PBXnwuWnDE32Klvcm/iZEmrVzdn2ipPtbfE0VuzJOPcW2wwbx4duWr78we9l1HP6QWAts60QCG7NJa9boFM6NbrumNk59u0ajcf8DvhvfYvrxGx1lQVybILw6dc6vFmjb+5OZCMHq4hZdGzle/47g8XeV7yOR4KP41TU6rb4JUPY4LXzlfahMk/b98R5tvDdOQ9p9qtpDT748TtduJ/kuQgXddZSIMY4v2yUO5NzXjJJI4PcN7QNyGlN9NLEc53EWKPeG/FZsuL00/Ym8HdupJSuqbzezffTGk91ChyYS+L/nKXtJefJZ8OAzo4GvGpnMf5KmCc3TgHX5U7MTlI6w7fWro5opeJgp1oE3vQ6+maFpzVNOkuWn5KaDX+WP0Kg4D3x5w/o7/YAy9ZL6Wpf9tvPLk5osZcXUU8J5tjrGaIP5cBvYLn/l/y3xKXKN/OnhtwKmHxCNdK7tLXxhVycHL7GBmM1AV1B+cqjP4bXypAe2njbnircRz47QdNBrc42eo/wqzZ8zn4ODz7E2qjaFgWXdtNgn/opmcPvIZHV19J2sXV1l2reLEc/x9Wnfk4ay/KmIaVr83L1Nl7wXdE68qXTKZRLhOKzbiJBrLp+j6ef0ZXFQTdpFqaNxt2UR29WwDnES9TjMqP2Y2dBki2JcbZRg/sNpOqnd3kHjU6Bc9S2z8POnTsFluzBb1TytXp0w9heq8qeQJq4GTxdZM7byTKYuNyS7j6QvmOsflz91P3El/DqIt+8coY1sWiKB/3uBVq+MGusELzM+hY5vW2Fa9Pf5U4+2123NwHsTf6p7tpaUsOsTNae/tXnd3Pev9DHr95HwbfOp/yzaBt7mZiOcu2bZ5okE/nZYcOJKODe67RrbOP8Udqrma16dI7uq6/2luXYzpeIubZenv+Fu0c5ekkvwdhmPS1T8ftsrO+adHWp58fF9erBDW7VzWnH7+yIVm7hvuusoSWMbX8Y9doowfmtaIoH/+5dZmjT2F1mZnQuZSrRqhOMM76sy+VshF9L+fVCTIDblpCay2Xf4QwrdQgcnEjzvF2g9572Sws2u0maDUxCULeTl7XJz65Rv9BVItr+bn2albRZsGgW2P9L3yuZoXZn3si28t0mr2fp+5m7ZPpEebOFWTjj2LK2aFpbuYAubq5StHaN3nJttepysLuelc1Ld3+h1UkokiCvgt53s2H3nitf1fONthIu+doq1CWr7pyweOLas/D2KxvYoYl2N2i66qLRLXH6+Yv8dVjbS78R8LP42wr3cC/l1ytW+n0xb2hFtWdz1OKpqPyaWfYi7jVLae9bXampb56hcxytmP92kfOT+YZu0+YmouZfzvnSUOui7JzHj6Du3ysCBKis3qf2Iqe1Q74fcOMY26rmJa7yUsOq9hF/HjdxTC3l/X6BcRzugLNo+kcDlQSLDAwsHUhORpjaqyBPvJ40JsQmHpHbZo8I0S20oAMAN3XXUFGMcX3ZUHCjUkIcO7sn99Ebv7U7e0/RVo/Z7I9gtdH4iAULYHSqLorXrAmgd54cTwgDK5S0PCCGEcB8b4Yk3CKE/mVsOrGk+56yaELNIVOavDgvXccX+dyynzWuRAAA3dNcRbKXR3l7cD3YLSCRACNtCqaNvvcgyDFN6yyOF9hNCCCG0EokECDvcdZp9pnoNV+1v+4dqAABu6K4j2EqRSDDZLSCRACFsA+WOvv0iyzDQexkaFd7yaOeF5SCEEMK2EokECDvb3CQdrV3Dni+l7dbIaaEAADd01xFspUgkmOwWkEiAELbcwp9Ghel32v9JoVZZyLtM97RO8y+ICwv2tvXCchBCCGFbiUQChJ3jvbycINhcpDHf4s+d0RcGALihu45gK0UiwWS3gEQChLClFj6dlVbB730th6fmDWYvpOjIrydoPrsZWEaFLzI08ayYRDhAR1/JolwhhBBCW5FIgLBz5Ndr6gj1/bKP2atdmDl1rjPezAUAuKG7jmArRSLBZLeARAKEsKluXh2hk2fGaPLSJI3++ojwJgKzl13f9/TfgzyRIJQVHyw9N0JjrBx5WZY9N0x9v5ATCNzUUyhXCCGE0EkkEiDsHKXrVWMHjTEAAG7oriPYSpFIMNktIJEAIWyq8vUseGiY0rf034EVpUSClSnq+908rSKJACGEELqJRAKEnWNAIiH11BhlvtR8p00FALihu45gK0UiwWS3gEQChLCp+hMJXrA7r/88FMyv0+JbI9SveetAMnWE+s9M0+LnLmsqQAghhLAmEgkQdo4fTlPvIaEvzEz9YpAmrq62/eLKqgAAN3TXEWylSCSY7BY6IpHwbSFP+XzVgv4zEMLOkF3Pq9kMZa4zs6u0iaflo8nbxVu5SjlW5eWJNhJCCCFs3PsFYfyRxzpDEHaIhQ6/XgEAbuiuI9haeTtc60Mh3lOzW+iMRAKEEEIIIYQQQghhFwsAcEN3HUHYjnYLSCRACCGEEEIIIYQQtlgAgBu66wjCdrRbQCIBQgghhBBCCCGEsMUCANzQXUcQtqPdAhIJEEIIIYQQQgghhC0WAODGd999p72WIGw3u4WGEwm4aCGEEEIIIYQQQgijy2MrAAA3/vrXv2qvJwjbzW6h4UTCjz/+qC0gCCGEEEIIIYQQQhguj60AANx48OCB9nqCsN3sFhpOJPz000/aAoIQQgghhBBCCCGE4fLYCgDADcQkYafYLTScSPj555+1BQQhhBBCCCGEEEIIw+WxFQCAG//85z+11xOE7Wa30HAigfO3v/1NW0gQQgghhBBCCCGE0CyPqQAA3PnPf/5D//M//6O9riBsJ7uFWBIJ//jHP7SFBCGEEEIIIYQQQgjN8pgKACAa//u//6u9riBsJ7uFWBIJnL///e/agoIQQgghhBBCCCGEfnksBQDQGHt7e9rrC8J2sVuILZHw73//G1McQQghhBBCCCGEEFrIYyg8lgIAaIxSqYQpjmBb2y3Elkjg/Otf/0IyAUIIIYQQQgghhDBAHjvhMRQAQDwgmQDb2W4h1kQCh2fTMc0RhBBCCCGEEEIIoV8eM8GbCADED08mYJoj2I52C7EnEqrwxYLwdgKEEEIIIYQQQghh5S0ELKwMQPLwBZjxdgJsJ7uFxBIJVX7++Wf66aef6Mcff6TvvvtOW5gQQgghhBBCCCGE3SSPgfBYCI+J8NgIAKB5/Oc//6F//vOf5evvwYMH9Ne//hVxSdgyu4XEEwkAAAAAAAAAAAAAAAAAAOhckEgAAAAAAAAAAAAAAAAAAIARJBIAAAAAAAAAAAAAAAAAAGAEiQQAAAAAAAAAAAAAAAAAABhBIgEAAAAAAAAAAAAAAAAAAEaQSAAAAAAAAAAAAAAAAAAAgBEkEgAAAAAAAAAAAAAAAAAAYASJBAAAAAAAAAAAAAAAAAAAGEEiAQAAAAAAAAAAAAAAAAAARgITCd9++y2EEEIILfzrX/9KP/74I/3000/06NEj+s9//uPdTQEAAAAAAAAAAAA6GyQSIIQQwgR88OAB/e///i/9+9//9u6qAAAAAAAAAAAAAJ0JEgkQQghhgu7t7dH/+3//z7uzAgAAAAAAAAAAAHQeSCRACCGECfs///M/9H//7//17q4AAAAAAAAAAAAAnQUSCRBCCGET5MkEvJkAAAAAAAAAAACATgSJBAghhLBJ8mmOsGYCAAAAAAAAAAAAOg0kEiCEEMImyhdgBgAAAAAAAAAAAOgkkEiAEEIIm+iDBw/oP//5j3enBQAAAAAAAAAAAGh/kEiAEEIIm+yjR4+8Oy0AAAAAAAAAAABA+4NEAoQQQthkf/rpJ+9OCwAAAAAAAAAAAND+IJEAIYQQNtkff/zRu9MCAAAAAAAAAAAAtD9IJEAIIYRN9q9//at3pwUAAAAAAAAAAABof5BIgBBCCFsgAAAAAAAAAAAAQKeARAKEEELYAgEAAAAAAAAAAAA6BSQSIIQQwhYIAAAAAAAAAAAA0CkgkQAhhBC2QAAAAAAAAAAAAIBOAYkECCGEsAUCAAAAAAAAAAAAdApIJEAIIYQtEAAAAAAAAAAAAKBTQCIBQgghbIEAAAAAAAAAAAAAnQISCRBCCGELBAAAAAAAAAAAAOgUkEiAEEIIWyAAAAAAAAAAAABAp4BEAoQQQtgCAQAAAAAAAAAAADoFJBIghBDCFggAAAAAAAAAAADQKSCRACGEELZAAAAAAAAAAAAAgE4BiQQIIYSwBQIAAAAAAAAAAAB0CkgkQAghhC0QAAAAAAAAAAAAoFNofiLh80WavDTpOUvZvOYzUO/9AuXzeSrc1/yt7c1T9p3qeWe+v675TGdbYOcmny9o/wYhhKpRKBWLVCyWvP8CEt/fpLnLc55LtFX0/j0mmln2xTtLwrHcpF3v3zuChM8DaB6lh6zOP/L+AwAAAAAAALDvaX4iITtBBw4c8DxJ819oPgP93pqnwZRXboeGKX1L85m2dpPmn6ued+aFrOYznWqBshd6vWNLUd9rWSpoPwchhHXdKNHW7AAdPnyY2UOnLm+xfwESd2a88uGepeUH3r83TPPLfu/GWeFYZmjL+/eOILHzAJrG411aHu3xzuFxOv/njkplAQAAAAAAABICiYSOsECZc9Uyq5h6Laf5XDvbxYmEz2epTzg3Bw4MUnpT8zkIIRR04pslOlULzlYCtCt73t9AhaQC2C0oeyQSQCsprU0J55B5bK6z6iAAAAAAAAAgEZBI6BCzF1JCuSGR0FZ+MU8nhXODRAKE0EYnHizTWTGwh0SCn6QC2C0oeyQSQEth57Cndg6ZSCQAAAAAAAAAGEgkdIq30jR8qFJuqadGaRFTG7WRBcq+1kep8rEdpJNv5Zo4tVGBNnNpmj03TNMf6v4OIWxX3SjR1uVTXnDvOJ1+bxtTG6kkFsBuftm3WyKh9MM2rWSm6Px7FnuCRELn83iXVsaOV87hsVN08eMmTG30uES7d1do6c3zdO0r798AAAAAAAAAbQUSCR0lX2y5Uxfz7eZEgue9POULmn9Pys00DVfXzWBOZDWfgRC2rZF4VCSstWwg6QB2E8u+fRIJe7QyVp0rnzmLRMJ+gi8wXnrs/UeS7K3Q+WPVOnOYZu54/w4AAAAAAABoK5BIgE1yHyQSmq0ypRISCbAtvZ+n1WyGMtczlPuiUxOhyQhiposC2O2USFg+W90PJhIJIAmU6cOQSAAAAAAAAKA9QSIBNkkkEmIXiYQulb95lHe3mW/D2HovSxO9wnV/IEV9l5o59Vd7C2IGiYQEQCIBNAEkEgAAAAAAAOgIkEiATRKJhNhFIqE79S3ebefJK5v67bXQ3BtHNfs6Qot5/ef3myBmkEhIACQSQBNAIgEAAAAAAICOoPFEQiFPm59my9NW1MytU/6e5rPcsETCvc3aNBjc7KebVLivfMbJAuVv5YT9y9LqZj6eJ2LvF6Rjz34avt2CtC85Wm/Wmgeu50ljIS+fG7eybEEigR3zeq6+v7lbYWXN6opYRtlV2nQon6bbQYmEat3h13P4k/MxX7P35HoQaxuQhJ2USChfY6uU1/2NmXstpdlXmwRypQ6sfqn7W/fYEh6XqPj9Nm3c3vDcpt1uWXQhLID9aI927lSPe4O2vtlrzvzvjNLDXdqulTl3i3YemOefD0sklIry9ra/T2ou+wQSCXGfh1KRdu/Wt7dxZ4f2OrVO+67P4HrSdrBzsffNlrD/lnUTiQQAAAAAAAA6gsiJhHwuTRO/PkIpX5Co7sFnRij9ufJdUyLhyyxNmraXOkKDb+WMwSqt9zcp89YI9R/SbI97qJ9G3srQZmCSwhD85tu+NEhHhIVuax46SZPLeWU739L6BxN00rAvB5+bpMym/HmfEd/kiHyeqn6Zo/SlgHLksrIcvWIOJlZMIpGQpQlhP2qB1PwqzZ/rp4PC36qmnhql+U/VhEKecu8MU5/ufPKpWH43T6uBT1CHHNu9DI2K2z46QdmwYLryndQLadpk/569IGzHQjm5EO0cbF45KWyT7bvmM+ZzkaPp5w4K32eafjeWa7bu5vVpGnlG+W3Jg9R/IePWrjTDNk8kFL5cpcyVSRp5ttqumOoEMzdJvcp+Vuuy77OFPK1en6fJM/21trXb37Jxwzaga/jc4yJt35iioSeEvwkeH1mgDTXg68wOLQ0K2331JhW9v5gofjwu7Mc43Qz7wtcL9LTp86YA9t4GLYw+ST21vwkee5LOvrdFxcBAZ4RgOqe0SxvvjRvLvCz//TT7fe8rVUyJhNJflmnqxePC3wSfGKKpj3a9TzaAVI4WquWR2HlQeLBB1yaG6Lhue8zjL47Ttdt73odldv54Svhsj1PgunR7SjiGIVr63vtDIzzeC64r7NyOv7dBe7ryecyuuxfFz1u8BaJ+58QcbUm5ly2aqW3vMJ29oS/HKsWvV2jGdG7L9tCTo8sk1s6tWd3nzCK5AAAAAAAAQOtxTyTcW6X53/ZKgaEgfYEgTUC8kJukfm0QV7b3t4v6AJTqrUUakeblNpt6aoKyxqfONYHXezmafFb3lK1oigavrHvbyFPm9xbllRqk+Vvq7wu6JhIaPU/M/Aej2mC8yYMvpWld2UbdJiUSrM59LzteL5nAymn2hbDzyex1rCfKZ/Lvj0jJnP6Zav3Qm3tDOHesbqS9891RiQTf/Pieut+N7ZrlrtOibd1/bt6uTWmmbZ1IkM9zxYBEAjP/SZomz5ykvl+eDEwE6eo2EgkiDSQSHu/SzdcH6v9m8thZWv7B20xEttNPC9ucorXAB8NLtPam8PvMqeAvyAHgs8vsaAU0AezS3QUaOlb9N7MDr9+UtyXhnkjY25iz+t2y6nEwdImE3Y8v0oD4Pa09NPTeNivZBkggkRDPeahjVxbcHjp1ectfHt8v0ZDwuR6Lc1pBqbOac+fMDzfp4glhmwH2PD9HW4+874l8vSCVR8+ba4F1gCfw6kH/AZr7Sv20bSKhxK75oYAEgqj8Zg0SCQAAAAAAAHQebokEHhh8Sg26pujIr0dp8q15WryeofQ7kzQW9ESpGhBfnqdB77OpXwzS6KVZSl9fpPm3xjRPE6do5H3/0/6St+rbq36H79/s1cq0Jov8SVp1u72TlNNtyxd4TdPimcrxl/e1fMxpmr00SoO/UMuln2Y/lwPCB58bpekri5S5OkuT5zRvNDwzaw7EuyQS4jhPTCmAnDpC/WfGaPKdtDc9DDtuzTGYA+RNSCTMLdKkF4zmb1mM8X39YJ6mX9E85Z4ao0whXzufvHz6fjNWrieLV6bLZaMmUVLnMobpcGyObZPSYsIiNUKLpmlbPp+l/urn2H4N/qEeIO6cRMI621dxfvyD1NvrXXfq78Z6zRbY78pJhPK1Wqu3vG2ZpNGXeivnt2MSCcHB+uYpn+c49w2JhDCiJhLWaGu2mkQ4TkMTM3TtxhptfLREc2+epSfV4O6LS7TTyDQqd8U3Bnpo7ivv33WU1mhK/G1mcEBXPrahjPL0vRrA3lims97x9fSdpanLS7Ty/7d3vq9xXOcezz+xL40xhCLkF0Z5Ea6gSfTCuobUFSRKRElQQRcZHDbEROQSiwRVNAgREJZJhUxqFFqxpoiIEHkpjUOpZEyEIFEWYmXhxk5xFUhAtAGVmO4L0efO7M9zzpwzP/aHdif9fOBLYu3szJk5ZyR4vud5njubsvbunFwK7Orvk0t/dKVDJDMS9j+4GNwl7+8of2tBVm9uy/af1+T6lRm5eLY6hhhGwqZ3b7VAsb/Tfu7dNdm8syGr3nkmBvuUY30Ny9KX1RM1Q7uNhLbNQ4V979logWs/m+FN/5x+KR3vvFeCO/uHl/eq365xKBtZ5ZjTM7Idx335fkMuKue9eDMqhSaCbxrPpiJ/5/5MZZ1497P5/kLwGZ1dkr3AO1qS3SuqWRiyBh56751yzWGb0RLTSAjMhb/Or/hrszL+jdyCzE2NVn/PYCQAAAAAAKSdBEaCEQj1FFqS56uC5K9OyuyHxs+1gHi/9Pf7/x2Q8Wv2APTWwohelics2P51vh5ILiszJNMf2o2HrWvjWskNewDcCLxmMuWxDLy6bimHUggEMPufGakGhB33V1g3dmxn3IGz2EZCm+bJUzmAnBmUyat5KbjKyXyWk6z2zP0AveW4JoPY4dKDmhlvfsqB9wXLs/5qSxaN53LOm5/y2nKtk0CA2/XcY96bcb5+77igMaHPn7MMjK/EPRKO0Uh4daoytoFxWcyrz7YoOzvqv9v8zuanpV85xv6uVlXckdxvchgJiYSR0E4lo0kj4exwOQDd9/yS7NpingebMqPthu6TmTtxIqoOjnZlTglSnv/dveoHFj6dC+5kfmJJzJBvncOP5FL92POyer/68xpaAPtJefIJ/7/D8rqj3M/+H4wg6LOrWumVBvGNhNLnC/pO+dPn5fX395wle0rfbMvS/EaEkVC9l9OjsvS5ZRKPDmW7bhZV1De7HbojPT7JTJQyHZsHD3PnvWtdH+3LhpaFMxpYL3qJonjr/vDmxcY545oPLo72ZEl991zz67F/U8/AGLW9Vw+9d089nzVbwjAcAiWNasQwErT30ZsLv3SRy4Qsl1b7SJy/DeiRAAAAAACQCmIbCWZpFr/MkDugHyItIO5LLQNkk7pr3Nc5Zwmgrbkh5TilfI1DevkYWwDcCLx6yjyzGG5klI0RXaFlbIzAZ/8beftxMY2Ets2Tp50PcxG9ASoqvjeujC0jUxZT4jiMBF9+4NjZRPezZRkzjvfHO/l79zopXBvTjrdnxMS/t60FNShfyVpRPy/+frIxf0pJI6t62EgoK6pcl6d2v7P6WCcdplaPq11Gwt2CFAq61Mb1xU/Wy9kZ05erentZ8p/Yn3+xfo4VyQbGlpUV5RoFtYH8V0Xl55bPi42fr7xknvcRyb6nfq8y/sZYFEU1RY94Ft1SMpo0EnydnbOXQ6mhZRGcSlDmxUZJtmeVHfIhpV8aZZAmZKI+ZotBUEM1HmyGgxbA9tUnE+87Q9Ieh/LRK+pu/hccpZ1iPntbYPiL5iLNupHga1jmPg05l3ntU3Oy3UpmSZ1WjQRfbZqHQF3/iHVtPJOAuWKYXtHmi/4snnzHaXnF4t7vRuvnipxfj71lxQBwmBil7TktIyhQKuy+WtLJVtKoRgwjQZvnkPc2DhgJAAAAAACpIKaRcEtm1V3DA1OSbzZAZxoJoRkGFfnBVfU72TXLccWcZNXd3pcdAXlVWsDOlg1gGgn9Mp03j9G1NTeoHO+p31WCpSbDfHDtQI9lJLRxnpKosCLj9bG5arUfh5EwJsuuckFlFSV3QT3e03PL4c12jXvLvGZbV0nubUvmn1LO9+JK4/rFvJKhopc0sqrHjYSxa/bMgro68M7qu9qzPbKLP6HaZCQ4d/j7fUGeczWhzsjgy2YDavP3YJSUsQaMY09KOSl9bUXLN5pyL+mZRWWFvscFWX7OOD7yd8XxKBnNGglxdlobTZJf0JuiJqW0OaNc39VAWbnmE0vy0QeNwLmrjIraf+HJQKkaDzOAHaNMkz7WUzK3Xf1AI96zP/zodW2H+8QHLgslGtNIiKp576M3EHaZIklpg5HQpnnQMwielKUvqh+EoD3H03Oya4xj750EPT20vgrxru+ktK2VF4plSmjBdleDaL+Hg2LKaGWQDmRjsvGZvaRRjWgjQV+jLa43jAQAAAAAgFQQz0gwds1HBgjDZASWYjUI3VmWkYjvFG9klZ34wZ3edm3J/E8b5x0MZA4YAbRIU8CTcX/ODIO6jOD2fzsyHuIYCe2cp0TSg8hdMxLUoLxDZuAysueGsUYeedk27oT35s1To0RPfzk46v9c3Z0fWtKopl42EpwlrhrqxDurjzU826Rn1UkjYS1Y4ssmPYuql4wE73vG77mKxmXFlT1lmIFlRRmIx6RkNGkkWIKnNnavqDvC9VrmiTFKnlgbKCtB2XIGxP1VOV/7zisfSdB7UM0ORxDVCGC7DAmNgw0tgGn/Tpxn7++qV47xMyZiPHcXepDWFTQ2+HxBKxHUnmBs60ZCe+bByHQJK3+koq4r2655o+lyWLPv/ZySQRD3+g50U2RUVh9UPwhFN/ycZcO+994/xaSoPUvfrKlf01nSqEbSjARHuaW4YCQAAAAAAKSCWEaCvss+JGATR1pgyVUGx1R0oDr/htLY9afRWQ4VRQVWjc9jBKr9RrmDteM9xQlk6gE/R8AwhpHQ1nkKlV+uZEdurecqjaMvjyvNgbtnJESbNmZ2y2CM4LUxbmtz3uT3ppXo8bNybivB46iSRjX1spEQ413pyDurNar2dULOXc7JTg+UsYktq5Fglg8yFfw9YzMSBgb0Pi5OaUaQ8cwj1WEjwcjqqcllCvrl3vRjM5K90RsGUzKaNBKsQfkgeuC6RSPBu6LayNZWKqlxvVqQfE+WyrX0fVl2hquBZldtei2wGdHouU6MgGmcZ280jrZmTCRAn48J2YgRi+9MMLZVI6Fd86Cuj4jeGyqRz8Rouux8X/Trt9pkWc2uOTWy6u4doBF/Lg7/eKlhGnjvy+aB93zr4w8raVQjxnthZFX4c31+ek32mnk0GAkAAAAAAKkglpGw/rIShIkd8HMozs76gKKMBL+PQuPzphXYBd5E4DVxcLd9RkJb50lR8ZO8LL+dlfGnB2XgpHINh7plJNivayjx+jPG3SYjwSxjdOJkbZd4jJJGNfWwkWAvAaWqU+9s0XufLMHyzKMy8uqirDt6APSUrEZClILzYjMSyjp5TqbfuyU7vgFxe13mf2k3FxomaLHcLyV3w9espc/ImMyWP6vpVsNEijAS/N8tte/N/sI4ztPYr9Xz5uRWtRyR1YC4kLP0R7GUM4uRLXNcSkaTRkKcwK9He40E43yBfgbq7v2GabA7X9txHtyBr5W+cZX50QLYE7L2XfXnobTJSPhmTV5QzhO2sz0OTc1HTxoJbZoHI8ulWdnKTWkNlF2luLQ+IhElkCIxslea1WSwSXcDvYzRmcfO1P8/vKRRjTjvhci+t07VLJiKzsjo1HXZvJ/AUcBIAAAAAABIBTGMhDiB1ATqiJFgjLFZBe6ticBr14yENs+Tr0JeZn/+qNa8OY4wEuLdW3EtK2aJllgljWrqYSMhei6MsTQr63wUJP+rc3LCdrynE09PyfKfjqvsVxPqpJFgbYBt3+Fvz/DR57ki15rwFGEkqLKN17mmrY3TLc21izmZNI6L1YvjmJSMdBkJeskYo366untfMQVUs8DMYmiYDKfk0h8dAcpuGgnatVsPhGIkGPNg3Fuzss6vsbPelm2g9lKIbsochfFMm1VII/My31ieWWRJoxrxjASf/Zuvy3ktM6Ghvp9dkut3QkdZASMBAAAAACAVYCSoCtxbE4HXH4uR8MmKjKuNm31lHpXBp8cle3lWFt/LSS6/VS6rUowVRG7iWUYq3UaCLWDc//K6ZVe1QxgJ4et8Z13mLww5DIWMDP7Poty6a/let9VBI8EVRLfu8Leujx4xEvxMg0DT5WDJIrNRf5yG+cepZKTMSDDquavBf7U+vGYKqAaDlsWglpW5KBvfV39sgpGAkRAhV0Bca7qc3dDLG2lGQ4tNlssck5FQ8p6pUo6p9p39WL074hsJZQ7vyeY7E/K4w1A4M74k22GnwEgAAAAAAEgFPxojYfmZxuctj7GuJgKvPwojwS87owbpBmT8al4KzjrzGAnJ783V9LZfsmsxy++k3EjozDtrUXFH1q9OyTlLWa7MM47m5t1UB42E7Jp+TF22gH9PGwmeLE2XM9qYLWaD349EPUeXlYy0GQlGHXgl86CRXWCaAmrJF6Uxrlo2KCx4ipHw4zUSYjXFboEv1dJF+rrUGiO32GS5gl92qHYtT1GGQFOUvPdsuHENRRN/iHMHCY2EGkeHcu/P1+XSz5TG2DWd9dbxw+pxJhgJAAAAAACpIF6PBC3Ak3UHjeKoI0aCMcb+ackbnzenJgKvXTMS2jhPxj2cW9iyH1cXRkLSe9u6OtIoGTUwLYu/Hmp8v9+buzg75Y/JSIi1PpuYi868s2EqyNZ7UzKUUa7raexaj5U5shoJIcF6h/R5q8i5RtJoJNhKMmWUsRRzkjXmeujtqN9lx6tkpM9I0OrKn/bOWd4JrWQXWAKo6jhqwUu/cWztZ6FNdrtpJBiB0BdiBWvdYCSY86B/3moz6yD7svqs7fol2XzT9vPW2J1vnDPYQ6R1St4cDNfOf/qSrP1BMUP8OVFLjVlp0khQOPh0VV4/2ziHryffcdwpRgIAAAAAQCqIZSToO5JbLA3RISNh5zcjynmHZP4v+ufNKV1GQrvmSS8HEmOOCisyXj8eIyHy3m6ra6TfWyNFo/lyzBJHrRoJL640muI6ZXynjUZCZ97ZGNKev6dYz+EYhZFQV9SaLlwbM76j/N7zrq33dxmT5Wqz5l5RMlJoJBztypxaEuZL72f3V+V89TrW4KTy+alXPpJDLZCrZCnY6KaRoN2rJ7M8TkIwEsx5MHbxtyUzQEdrulwzubQmzyFltRJy8IE6v6Oy+qD6QTt4uK2VNKo8S735cnSJo9aNhDLGWJymCUYCAAAAAEAqiGUkfP2XeRlSAjKZVgJviQO5vmIEKY0xDlgbhSZVE8HvLhoJ7Zon3ZCIzmwwg3kYCWH3tqUdm7mQqxsGvoHTCHzGKHGUeK0VJXehcby2e9ulQFC7fUZCZ97ZOPJLdzWu6wpsd00YCXVFrmlL1kGtSfT6q0ZZo14zjDwlI4VGgpRke7YRvPSzCfZzo9V/u0wBtR/CjGw+VAL0UTu3u2kkGPd66tRwxThpEoyE4Dw01o6v1p6vFa0XQiW4r5oLrTdZVtCakZ+S4bZlWHjr8C2lpNizq3KvZhjc168ZXuKoTUaCh1bizLWWMRIAAAAAAFJBPCOhHIBUgzIZGbnaZImIThkJXxdk+bnGMf4O59mPzWMc+mpHdqw7VVNmJLRpngq/HVfOEZHZcHddsv21YyvCSHDf29acUsIoMy4r2rozelNElTgy1tr4b6NL9GwtqCZRJuI75nry1UYjoRPvrLOPhyqjP8MzyxgJaTUSPAUMg3KZrLxMa7+Xgo2Ye0HJSKORIFLanGmc95VVWa31QBhZFVeRokYPhT5ZyDUyFJxlUWp01UjwMAK1oTXhVSw7w3vWSChniUTQqXn4fkMuKsecevZ6I0gexXcHMTJEdDNo4v09pWdHO5osqxzKRrZ2bl+jcv3/qh9FcXQgB47MCP99a5QwCpote8tq3wRvbpwljmLMR8xnv3tFMdhOL9jXsrF2tSbsIZQOD+Wwbe4OAAAAAABEEdNI8HR7UUa0nZ8ZGXotJzuuwF1xR3KXz8m0GQjqmJHwtRQ/nJIB5bhHMkMydSMsoFmUnRuzMvZfGUfAKm1Ggqd2zNNf5mWw/n2/Ie283LIFtD/LSdZ7do1rVYSR4Li3/LS2Pq29J4yyO6Eljoo5mVSO9ccW2UjWyAJ4JDMi8x/bAqwFWX9tsJwhkcmoc9xOI6H97+z6qyfk3GVvvReDn9VU9NaAes1eq5ufPiNhUnKu5207bwIjYfL3MYL/gabL3nt9zfhZnOybLigZ6TQStNIwI6MyWt3xHVbjXjUfJiZq4+qLDox320gQS4Pbs6/L2pfuoOjhF2vy+vSGdwWd3jES9B4B1uCzGVDu2Dx4z/eK/nz7nl+Q7bDzl/Zl+91Lct7v0VH9UShqXw9v7dWfp58NE9e0iEnp84VGHwNfp0dl4Y7tvqsclWT/TqWRsXVuv/feNaW81pNvWTIozFJDzhJH0fPhr9Hz02uyF1bu6RtvTSpjcmZ1lDZlRrmedVzqv4/2ZSN7pnr8Gbn4QbsLXQEAAAAAgI34RoInMwBXCdA8KiMXpmX26orkbuRk+e1pmXxuQE5UPw8ErhIHcn3FDVIWJX+5EvxsXOMROTEwJpO/WpQVb3z+GHPX5mX6wpgMnGwc86MxEjy1Pk/Gffs6ea7xDN9blOkXh+rfHXhjWrLKsRgJlnszeiA88tS8M+iff2OgcVxoiSOjRI+nE0+NS/bt5fIaz/5i0LL+bFkGJ2ToxWx1bSzL/MvjMlR7NwamZHlOzWJor5HQ7ne28S6dkIHnJmXafxbKObLKui3Lu79Yja2PU1YjISsrhYIUIqSaTp0xErx1bJQS8s1KZ8Dfdl6HkZB/LWhKqqW/3Ao2XT73tLpmH5H+y8dVNiuZkpFSIyGw89pXxO5urS59TTOyGbXzuOtGgsfRvqypteirOvPsJZm7siobd7Zl+89rcv2tSzI6WD0uoul0d40EbzqUZtdlPTYql97y72VDVr37OH/FGF3H5sGjtCtLPzOf7xkZvjgj19/flG3/+XrayC3IzMVhOVM/Ju6a1psu1zSa60SguiS775xXMggqOnP2osy8uyab1XvZvrkqC29elOHHGscE59bogXDaLwtW/cjAn0/1mvYSR/GMhMrnffL48976Vsfsr/E3J+RxxUQ4ddpiQtU5VLI/Kiq/M7mN8v3PvXJeFpR7DqzJOL8fAAAAAACgZRIZCb4KH07LUCCQ5FYgcJU4kOsrSZCyKPk3hgKByXANyOyfbOdKp5Hgq+V5CmQ22DXwyxXZijU//8lGQtGbY9UcGAgvF2WaDmEljowsB1PW9XfXe27q+V06OSbLt82eGe02Eny17521Bc+dGhiXFe/+zHN0XVYjIY709dwZI8EoC1VTZlDGLi/KyrV5mfy5X1qoenwCI0Fvvl1TRgZ/MS2L7y3L/IURmf4w+D1fwabLqgaPr5F3QiUjrUaCeW5P/u7w0N3dxj34enPTvpNZpReMBB9/t/T/GpkJYepxI0GO9mTpbOO8AZnPo5NGgs9DbzzPB82aUJ297iylZRJYr21sshykJHvLowEzIVzDgTJI+96YG+foiygNZJgO/hwFAvxJjIQYOj0qS19EvMFfLukZGobU9aw3q/Y1IRshSwYAAAAAANpDYiOhrMItWX51RB4NCTRnfjIiU1fXgyV1Om4kVFT407JM/fzR8ODkyQEZe3VZbhXs50izkVBWK/Pk67N1mXY9w8ygTF69VW1eipEQdm9mhki/93nULmu98XJ4iaPCh7NyTtmp39AJZ+D167u3ZPGCsTu/Lj94Oy/56nvReSOhona8s4X8YoxzDMnk24413wvqaSPha9l6W+nzYZWyRmzndRgJgbJbFjnHb2m6XFdI9k+3lYz0GglmY9m+GGO697vzynhi1kzvFSOhyoFfhubZWvkVm87I6NR12bwfvLeeMhJ8Dnfl+rj9Xs68Y4yu00aCz9Gh7N2ck4laVodD/u7+uZt7cpikLJHZiyGOidUih19uyNzk4+GGwmPDcnF+Q/bM5WKUD7IZUwHMfh6BUkLR81H6ZlOuT40qWR8WnX5cJt7ZlHsxXl+fw8+vywtK5kVDZ2Tp8+pBPn4TdsXcGvbeSRISAAAAAAA6T3NGQl1FKdzON0qH+Fq/JTuFHmpqebcgW3llfL04xo6rxXm6uyV55bvrH+slVFAvyJhjb34LIX0C6ioa74e/Lrpd6qcd76x3Xzsfr+vnuJGXrTS89z1uJAQyZgJq0kjwM1NeUzN3ggozZvOX+63fGbsW3YS8W4L/EB4eyL1PqyVfqtp7cCilJMHtHqF0uC979fvYlXsH3Q/flr5Xx1TR7v0DOYzT6NqGZiT0ycydY7zHh4ey/4V+L9uf3pOD73s4TH5UksMHe/qY/bXxXZNr3Dyff/+22y9V5/0LUhEAAAAAAI6LFo0EhBBCbVWvGwm+/Gylp08Ev+MrM9VUaaOKCrJ++ZwzU2bKlWHjy5rRMCbLn1mO7REBQO+xnxut73TvRJNlAAAAAACAtIKRgBBCqCkVC3q2Uv52m7KVzEyZ/FZ0hk1+WvoNIyHzUpxmzd0TAPQYfj+IJ2rZCJ1qsgwAAAAAAJBOMBIQQgilXEXJvZTRTAQ/gyF7o7dLWQFAb1HanFH6FHSyyTIAAAAAAED6wEhACCGUbn22LGOaieCpf7pRYqlHBQA9xNE9WX22kY3QN7tNA18AAAAAAAAFjASEEELpUbEgha+UfxduyfwzwWyE8d/2bpPlmgCgRzg6kM3Z4bqJcOr0hGx8V/0MAAAAAAAAymAkIIQQSo/KzahPyMBPB2XQ06MZ1UCo6ql52bJ9t8cEAN1iV5Z+dlFmrizIwluXZPSxRibCqVN9MvE+vREAAAAAAABMMBIQQgilR2UjwWIe1JQZkcXblu/1oACgW+zKXN040E2E81d2KWkEAAAAAABgASMBIYRQehRmJJwck/mPe7vBsioA6BYWI+GxF2TpzkH1cwAAAAAAADDBSEAIIZQe7azI+E+Mnggnh2T8VznZUXsnpEAA0D1KD/Zk+852WXsPDqV0VP0AAAAAAAAArGAkIIQQSqfuFqSYMvNAFQAAAAAAAABAWsBIQAghhLogAAAAAAAAAIC0gJGAEEIIdUEAAAAAAAAAAGkBIwEhhBDqggAAAAAAAAAA0gJGAkIIIdQFAQAAAAAAAACkBYwEhBBC6Jj14MGD6l9aAAAAAAAAAIDeByMBIYQQOmZ9++231b+0AAAAAAAAAAC9D0YCQgghdMz6+9//Xv1LCwAAAAAAAADQ+2AkIIQQQsesH374ofqXFgAAAAAAAACg98FIQAghhI5R3333XfWvLAAAAAAAAABAOsBIQAghhI5R//znP6t/ZQEAAAAAAAAA0gFGAkIIIXRMOjg4kH//+9/Vv7IAAAAAAAAAAOkAIwEhhBA6BvkljUqlUvUvLAAAAAAAAABAesBIQAghhDqsb7/9Vv71r39V/7oCAAAAAAAAAKQLjASEEEKog/LLGZGJAAAAAAAAAABpBiMBIYQQ6oD8UkZ+Y2V6IgAAAAAAAABA2sFIQAghhFrUX//6V/nb3/5WLmH0j3/8Q3744Qc5Ojqq/jUFAAAAAAAAAEg3oUYCAAAAAAAAAAAAAAD8Z4ORAAAAAAAAAAAAAAAATjASAAAAAAAAAAAAAADACUYCAAAAAAAAAAAAAAA4wUgAAAAAAAAAAAAAAAAHIv8PpFcQPvLEh0UAAAAASUVORK5CYII=;strokeColor=#000000;" vertex="1" parent="1">
          <mxGeometry x="100" y="90" width="512" height="122.9" as="geometry" />
        </mxCell>
        <mxCell id="U7dpvvyfIJU9yQjUAiOd-11" value="" style="html=1;shadow=0;dashed=0;align=center;verticalAlign=middle;shape=mxgraph.arrows2.arrow;dy=0.6;dx=40;direction=south;notch=0;strokeColor=#000000;fillColor=#FF9999;" vertex="1" parent="1">
          <mxGeometry x="370" y="120" width="20" height="160" as="geometry" />
        </mxCell>
        <mxCell id="U7dpvvyfIJU9yQjUAiOd-12" value="" style="html=1;shadow=0;dashed=0;align=center;verticalAlign=middle;shape=mxgraph.arrows2.arrow;dy=0.6;dx=40;direction=south;notch=0;strokeColor=#000000;fillColor=#FF9999;" vertex="1" parent="1">
          <mxGeometry x="260" y="150" width="20" height="130" as="geometry" />
        </mxCell>
      </root>
    </mxGraphModel>
  </diagram>
</mxfile>
